%
M48
M72
T01C0.01378
T02C0.02756
T03C0.03543
T04C0.11811
%
T01
X94290Y70668
X117408Y89013
X123408Y86013
X131808Y75813
X136608Y71613
X146808Y66213
X150408Y66213
X149408Y56889
X163608Y67413
X173208Y57813
X133608Y36213
X127608Y47013
X121608Y48213
X147408Y96213
X190008Y102213
X236947Y222065
X246547Y231665
X245347Y244865
X245347Y248465
X236022Y245865
X250747Y258665
X254947Y263465
X265147Y271865
X268147Y277865
X249802Y300983
X227347Y273665
X226147Y267665
X215347Y261665
X275347Y247865
X281347Y205265
X89013Y277865
X86013Y271865
X75813Y263465
X71613Y258665
X66213Y248465
X66213Y244865
X56889Y245865
X67413Y231665
X57813Y222065
X102213Y205265
X96213Y247865
X48213Y273665
X47013Y267665
X36213Y261665
X70668Y300983
T02
X41141Y182873
X47046Y182873
X52952Y182873
X58857Y182873
X64763Y182873
X70668Y182873
X76574Y182873
X82479Y182873
X88385Y182873
X94290Y182873
X100196Y182873
X106101Y182873
X112007Y182873
X117912Y182873
X123818Y182873
X129723Y182873
X135629Y182873
X141534Y182873
X147440Y182873
X153345Y182873
X159251Y182873
X165156Y182873
X171062Y182873
X176967Y182873
X182873Y182873
X182873Y188778
X188778Y182873
X194684Y182873
X200589Y182873
X206495Y182873
X212400Y182873
X218306Y182873
X224211Y182873
X230117Y182873
X236022Y182873
X241928Y182873
X247833Y182873
X253739Y182873
X259645Y182873
X265550Y182873
X271456Y182873
X277361Y182873
X283267Y182873
X289172Y182873
X295078Y182873
X300983Y182873
X306889Y182873
X312794Y182873
X318700Y182873
X324605Y182873
X330511Y182873
X336416Y182873
X342322Y182873
X348227Y182873
X354133Y182873
X360038Y182873
X182873Y371849
X182873Y377755
X182873Y383660
X182873Y389566
X182873Y365944
X182873Y360038
X182873Y354133
X182873Y348227
X182873Y342322
X182873Y336416
X182873Y330511
X182873Y324605
X182873Y318700
X182873Y312794
X182873Y306889
X182873Y300983
X182873Y295078
X182873Y289172
X182873Y283267
X182873Y277361
X182873Y271456
X182873Y265550
X182873Y259645
X182873Y253739
X182873Y247833
X182873Y241928
X182873Y236022
X182873Y230117
X182873Y224211
X182873Y218306
X182873Y212400
X182873Y206495
X182873Y200589
X182873Y194684
X212400Y176967
X212400Y171062
X212400Y165156
X212400Y159251
X212400Y153345
X212400Y147440
X212400Y141534
X212400Y135629
X212400Y129723
X212400Y123818
X212400Y117912
X212400Y112007
X212400Y106101
X212400Y100196
X212400Y94290
X212400Y88385
X212400Y82479
X212400Y76574
X212400Y70668
X212400Y64763
X212400Y58857
X212400Y52952
X212400Y47046
X212400Y41141
X212400Y35235
X212400Y29330
X212400Y23424
X212400Y17519
X212400Y11613
X212400Y5707
X17519Y182873
X11613Y182873
X5707Y182873
X23424Y182873
X29330Y182873
X35235Y182873
T03
X152046Y214408
X152046Y231731
X180865Y152046
X163542Y152046
X331180Y214408
X331180Y231731
T04
X21456Y21456
X47046Y163188
X21456Y204526
X200589Y204526
X190747Y21456
X342322Y348227
X200589Y373818
X163188Y348227
X21456Y373818
M30
