G75*
%MOIN*%
%OFA0B0*%
%FSLAX25Y25*%
%IPPOS*%
%LPD*%
%AMOC8*
5,1,8,0,0,1.08239X$1,22.5*
%
%ADD10C,0.00600*%
%ADD11C,0.00000*%
%ADD12C,0.04343*%
%ADD13C,0.12611*%
%ADD14C,0.03778*%
%ADD15C,0.05156*%
D10*
X0003739Y0003739D02*
X0003739Y0391534D01*
X0362007Y0391534D01*
X0362007Y0003739D01*
X0003739Y0003739D01*
D11*
X0015550Y0021456D02*
X0015552Y0021609D01*
X0015558Y0021763D01*
X0015568Y0021916D01*
X0015582Y0022068D01*
X0015600Y0022221D01*
X0015622Y0022372D01*
X0015647Y0022523D01*
X0015677Y0022674D01*
X0015711Y0022824D01*
X0015748Y0022972D01*
X0015789Y0023120D01*
X0015834Y0023266D01*
X0015883Y0023412D01*
X0015936Y0023556D01*
X0015992Y0023698D01*
X0016052Y0023839D01*
X0016116Y0023979D01*
X0016183Y0024117D01*
X0016254Y0024253D01*
X0016329Y0024387D01*
X0016406Y0024519D01*
X0016488Y0024649D01*
X0016572Y0024777D01*
X0016660Y0024903D01*
X0016751Y0025026D01*
X0016845Y0025147D01*
X0016943Y0025265D01*
X0017043Y0025381D01*
X0017147Y0025494D01*
X0017253Y0025605D01*
X0017362Y0025713D01*
X0017474Y0025818D01*
X0017588Y0025919D01*
X0017706Y0026018D01*
X0017825Y0026114D01*
X0017947Y0026207D01*
X0018072Y0026296D01*
X0018199Y0026383D01*
X0018328Y0026465D01*
X0018459Y0026545D01*
X0018592Y0026621D01*
X0018727Y0026694D01*
X0018864Y0026763D01*
X0019003Y0026828D01*
X0019143Y0026890D01*
X0019285Y0026948D01*
X0019428Y0027003D01*
X0019573Y0027054D01*
X0019719Y0027101D01*
X0019866Y0027144D01*
X0020014Y0027183D01*
X0020163Y0027219D01*
X0020313Y0027250D01*
X0020464Y0027278D01*
X0020615Y0027302D01*
X0020768Y0027322D01*
X0020920Y0027338D01*
X0021073Y0027350D01*
X0021226Y0027358D01*
X0021379Y0027362D01*
X0021533Y0027362D01*
X0021686Y0027358D01*
X0021839Y0027350D01*
X0021992Y0027338D01*
X0022144Y0027322D01*
X0022297Y0027302D01*
X0022448Y0027278D01*
X0022599Y0027250D01*
X0022749Y0027219D01*
X0022898Y0027183D01*
X0023046Y0027144D01*
X0023193Y0027101D01*
X0023339Y0027054D01*
X0023484Y0027003D01*
X0023627Y0026948D01*
X0023769Y0026890D01*
X0023909Y0026828D01*
X0024048Y0026763D01*
X0024185Y0026694D01*
X0024320Y0026621D01*
X0024453Y0026545D01*
X0024584Y0026465D01*
X0024713Y0026383D01*
X0024840Y0026296D01*
X0024965Y0026207D01*
X0025087Y0026114D01*
X0025206Y0026018D01*
X0025324Y0025919D01*
X0025438Y0025818D01*
X0025550Y0025713D01*
X0025659Y0025605D01*
X0025765Y0025494D01*
X0025869Y0025381D01*
X0025969Y0025265D01*
X0026067Y0025147D01*
X0026161Y0025026D01*
X0026252Y0024903D01*
X0026340Y0024777D01*
X0026424Y0024649D01*
X0026506Y0024519D01*
X0026583Y0024387D01*
X0026658Y0024253D01*
X0026729Y0024117D01*
X0026796Y0023979D01*
X0026860Y0023839D01*
X0026920Y0023698D01*
X0026976Y0023556D01*
X0027029Y0023412D01*
X0027078Y0023266D01*
X0027123Y0023120D01*
X0027164Y0022972D01*
X0027201Y0022824D01*
X0027235Y0022674D01*
X0027265Y0022523D01*
X0027290Y0022372D01*
X0027312Y0022221D01*
X0027330Y0022068D01*
X0027344Y0021916D01*
X0027354Y0021763D01*
X0027360Y0021609D01*
X0027362Y0021456D01*
X0027360Y0021303D01*
X0027354Y0021149D01*
X0027344Y0020996D01*
X0027330Y0020844D01*
X0027312Y0020691D01*
X0027290Y0020540D01*
X0027265Y0020389D01*
X0027235Y0020238D01*
X0027201Y0020088D01*
X0027164Y0019940D01*
X0027123Y0019792D01*
X0027078Y0019646D01*
X0027029Y0019500D01*
X0026976Y0019356D01*
X0026920Y0019214D01*
X0026860Y0019073D01*
X0026796Y0018933D01*
X0026729Y0018795D01*
X0026658Y0018659D01*
X0026583Y0018525D01*
X0026506Y0018393D01*
X0026424Y0018263D01*
X0026340Y0018135D01*
X0026252Y0018009D01*
X0026161Y0017886D01*
X0026067Y0017765D01*
X0025969Y0017647D01*
X0025869Y0017531D01*
X0025765Y0017418D01*
X0025659Y0017307D01*
X0025550Y0017199D01*
X0025438Y0017094D01*
X0025324Y0016993D01*
X0025206Y0016894D01*
X0025087Y0016798D01*
X0024965Y0016705D01*
X0024840Y0016616D01*
X0024713Y0016529D01*
X0024584Y0016447D01*
X0024453Y0016367D01*
X0024320Y0016291D01*
X0024185Y0016218D01*
X0024048Y0016149D01*
X0023909Y0016084D01*
X0023769Y0016022D01*
X0023627Y0015964D01*
X0023484Y0015909D01*
X0023339Y0015858D01*
X0023193Y0015811D01*
X0023046Y0015768D01*
X0022898Y0015729D01*
X0022749Y0015693D01*
X0022599Y0015662D01*
X0022448Y0015634D01*
X0022297Y0015610D01*
X0022144Y0015590D01*
X0021992Y0015574D01*
X0021839Y0015562D01*
X0021686Y0015554D01*
X0021533Y0015550D01*
X0021379Y0015550D01*
X0021226Y0015554D01*
X0021073Y0015562D01*
X0020920Y0015574D01*
X0020768Y0015590D01*
X0020615Y0015610D01*
X0020464Y0015634D01*
X0020313Y0015662D01*
X0020163Y0015693D01*
X0020014Y0015729D01*
X0019866Y0015768D01*
X0019719Y0015811D01*
X0019573Y0015858D01*
X0019428Y0015909D01*
X0019285Y0015964D01*
X0019143Y0016022D01*
X0019003Y0016084D01*
X0018864Y0016149D01*
X0018727Y0016218D01*
X0018592Y0016291D01*
X0018459Y0016367D01*
X0018328Y0016447D01*
X0018199Y0016529D01*
X0018072Y0016616D01*
X0017947Y0016705D01*
X0017825Y0016798D01*
X0017706Y0016894D01*
X0017588Y0016993D01*
X0017474Y0017094D01*
X0017362Y0017199D01*
X0017253Y0017307D01*
X0017147Y0017418D01*
X0017043Y0017531D01*
X0016943Y0017647D01*
X0016845Y0017765D01*
X0016751Y0017886D01*
X0016660Y0018009D01*
X0016572Y0018135D01*
X0016488Y0018263D01*
X0016406Y0018393D01*
X0016329Y0018525D01*
X0016254Y0018659D01*
X0016183Y0018795D01*
X0016116Y0018933D01*
X0016052Y0019073D01*
X0015992Y0019214D01*
X0015936Y0019356D01*
X0015883Y0019500D01*
X0015834Y0019646D01*
X0015789Y0019792D01*
X0015748Y0019940D01*
X0015711Y0020088D01*
X0015677Y0020238D01*
X0015647Y0020389D01*
X0015622Y0020540D01*
X0015600Y0020691D01*
X0015582Y0020844D01*
X0015568Y0020996D01*
X0015558Y0021149D01*
X0015552Y0021303D01*
X0015550Y0021456D01*
X0041140Y0163188D02*
X0041142Y0163341D01*
X0041148Y0163495D01*
X0041158Y0163648D01*
X0041172Y0163800D01*
X0041190Y0163953D01*
X0041212Y0164104D01*
X0041237Y0164255D01*
X0041267Y0164406D01*
X0041301Y0164556D01*
X0041338Y0164704D01*
X0041379Y0164852D01*
X0041424Y0164998D01*
X0041473Y0165144D01*
X0041526Y0165288D01*
X0041582Y0165430D01*
X0041642Y0165571D01*
X0041706Y0165711D01*
X0041773Y0165849D01*
X0041844Y0165985D01*
X0041919Y0166119D01*
X0041996Y0166251D01*
X0042078Y0166381D01*
X0042162Y0166509D01*
X0042250Y0166635D01*
X0042341Y0166758D01*
X0042435Y0166879D01*
X0042533Y0166997D01*
X0042633Y0167113D01*
X0042737Y0167226D01*
X0042843Y0167337D01*
X0042952Y0167445D01*
X0043064Y0167550D01*
X0043178Y0167651D01*
X0043296Y0167750D01*
X0043415Y0167846D01*
X0043537Y0167939D01*
X0043662Y0168028D01*
X0043789Y0168115D01*
X0043918Y0168197D01*
X0044049Y0168277D01*
X0044182Y0168353D01*
X0044317Y0168426D01*
X0044454Y0168495D01*
X0044593Y0168560D01*
X0044733Y0168622D01*
X0044875Y0168680D01*
X0045018Y0168735D01*
X0045163Y0168786D01*
X0045309Y0168833D01*
X0045456Y0168876D01*
X0045604Y0168915D01*
X0045753Y0168951D01*
X0045903Y0168982D01*
X0046054Y0169010D01*
X0046205Y0169034D01*
X0046358Y0169054D01*
X0046510Y0169070D01*
X0046663Y0169082D01*
X0046816Y0169090D01*
X0046969Y0169094D01*
X0047123Y0169094D01*
X0047276Y0169090D01*
X0047429Y0169082D01*
X0047582Y0169070D01*
X0047734Y0169054D01*
X0047887Y0169034D01*
X0048038Y0169010D01*
X0048189Y0168982D01*
X0048339Y0168951D01*
X0048488Y0168915D01*
X0048636Y0168876D01*
X0048783Y0168833D01*
X0048929Y0168786D01*
X0049074Y0168735D01*
X0049217Y0168680D01*
X0049359Y0168622D01*
X0049499Y0168560D01*
X0049638Y0168495D01*
X0049775Y0168426D01*
X0049910Y0168353D01*
X0050043Y0168277D01*
X0050174Y0168197D01*
X0050303Y0168115D01*
X0050430Y0168028D01*
X0050555Y0167939D01*
X0050677Y0167846D01*
X0050796Y0167750D01*
X0050914Y0167651D01*
X0051028Y0167550D01*
X0051140Y0167445D01*
X0051249Y0167337D01*
X0051355Y0167226D01*
X0051459Y0167113D01*
X0051559Y0166997D01*
X0051657Y0166879D01*
X0051751Y0166758D01*
X0051842Y0166635D01*
X0051930Y0166509D01*
X0052014Y0166381D01*
X0052096Y0166251D01*
X0052173Y0166119D01*
X0052248Y0165985D01*
X0052319Y0165849D01*
X0052386Y0165711D01*
X0052450Y0165571D01*
X0052510Y0165430D01*
X0052566Y0165288D01*
X0052619Y0165144D01*
X0052668Y0164998D01*
X0052713Y0164852D01*
X0052754Y0164704D01*
X0052791Y0164556D01*
X0052825Y0164406D01*
X0052855Y0164255D01*
X0052880Y0164104D01*
X0052902Y0163953D01*
X0052920Y0163800D01*
X0052934Y0163648D01*
X0052944Y0163495D01*
X0052950Y0163341D01*
X0052952Y0163188D01*
X0052950Y0163035D01*
X0052944Y0162881D01*
X0052934Y0162728D01*
X0052920Y0162576D01*
X0052902Y0162423D01*
X0052880Y0162272D01*
X0052855Y0162121D01*
X0052825Y0161970D01*
X0052791Y0161820D01*
X0052754Y0161672D01*
X0052713Y0161524D01*
X0052668Y0161378D01*
X0052619Y0161232D01*
X0052566Y0161088D01*
X0052510Y0160946D01*
X0052450Y0160805D01*
X0052386Y0160665D01*
X0052319Y0160527D01*
X0052248Y0160391D01*
X0052173Y0160257D01*
X0052096Y0160125D01*
X0052014Y0159995D01*
X0051930Y0159867D01*
X0051842Y0159741D01*
X0051751Y0159618D01*
X0051657Y0159497D01*
X0051559Y0159379D01*
X0051459Y0159263D01*
X0051355Y0159150D01*
X0051249Y0159039D01*
X0051140Y0158931D01*
X0051028Y0158826D01*
X0050914Y0158725D01*
X0050796Y0158626D01*
X0050677Y0158530D01*
X0050555Y0158437D01*
X0050430Y0158348D01*
X0050303Y0158261D01*
X0050174Y0158179D01*
X0050043Y0158099D01*
X0049910Y0158023D01*
X0049775Y0157950D01*
X0049638Y0157881D01*
X0049499Y0157816D01*
X0049359Y0157754D01*
X0049217Y0157696D01*
X0049074Y0157641D01*
X0048929Y0157590D01*
X0048783Y0157543D01*
X0048636Y0157500D01*
X0048488Y0157461D01*
X0048339Y0157425D01*
X0048189Y0157394D01*
X0048038Y0157366D01*
X0047887Y0157342D01*
X0047734Y0157322D01*
X0047582Y0157306D01*
X0047429Y0157294D01*
X0047276Y0157286D01*
X0047123Y0157282D01*
X0046969Y0157282D01*
X0046816Y0157286D01*
X0046663Y0157294D01*
X0046510Y0157306D01*
X0046358Y0157322D01*
X0046205Y0157342D01*
X0046054Y0157366D01*
X0045903Y0157394D01*
X0045753Y0157425D01*
X0045604Y0157461D01*
X0045456Y0157500D01*
X0045309Y0157543D01*
X0045163Y0157590D01*
X0045018Y0157641D01*
X0044875Y0157696D01*
X0044733Y0157754D01*
X0044593Y0157816D01*
X0044454Y0157881D01*
X0044317Y0157950D01*
X0044182Y0158023D01*
X0044049Y0158099D01*
X0043918Y0158179D01*
X0043789Y0158261D01*
X0043662Y0158348D01*
X0043537Y0158437D01*
X0043415Y0158530D01*
X0043296Y0158626D01*
X0043178Y0158725D01*
X0043064Y0158826D01*
X0042952Y0158931D01*
X0042843Y0159039D01*
X0042737Y0159150D01*
X0042633Y0159263D01*
X0042533Y0159379D01*
X0042435Y0159497D01*
X0042341Y0159618D01*
X0042250Y0159741D01*
X0042162Y0159867D01*
X0042078Y0159995D01*
X0041996Y0160125D01*
X0041919Y0160257D01*
X0041844Y0160391D01*
X0041773Y0160527D01*
X0041706Y0160665D01*
X0041642Y0160805D01*
X0041582Y0160946D01*
X0041526Y0161088D01*
X0041473Y0161232D01*
X0041424Y0161378D01*
X0041379Y0161524D01*
X0041338Y0161672D01*
X0041301Y0161820D01*
X0041267Y0161970D01*
X0041237Y0162121D01*
X0041212Y0162272D01*
X0041190Y0162423D01*
X0041172Y0162576D01*
X0041158Y0162728D01*
X0041148Y0162881D01*
X0041142Y0163035D01*
X0041140Y0163188D01*
X0015550Y0204526D02*
X0015552Y0204679D01*
X0015558Y0204833D01*
X0015568Y0204986D01*
X0015582Y0205138D01*
X0015600Y0205291D01*
X0015622Y0205442D01*
X0015647Y0205593D01*
X0015677Y0205744D01*
X0015711Y0205894D01*
X0015748Y0206042D01*
X0015789Y0206190D01*
X0015834Y0206336D01*
X0015883Y0206482D01*
X0015936Y0206626D01*
X0015992Y0206768D01*
X0016052Y0206909D01*
X0016116Y0207049D01*
X0016183Y0207187D01*
X0016254Y0207323D01*
X0016329Y0207457D01*
X0016406Y0207589D01*
X0016488Y0207719D01*
X0016572Y0207847D01*
X0016660Y0207973D01*
X0016751Y0208096D01*
X0016845Y0208217D01*
X0016943Y0208335D01*
X0017043Y0208451D01*
X0017147Y0208564D01*
X0017253Y0208675D01*
X0017362Y0208783D01*
X0017474Y0208888D01*
X0017588Y0208989D01*
X0017706Y0209088D01*
X0017825Y0209184D01*
X0017947Y0209277D01*
X0018072Y0209366D01*
X0018199Y0209453D01*
X0018328Y0209535D01*
X0018459Y0209615D01*
X0018592Y0209691D01*
X0018727Y0209764D01*
X0018864Y0209833D01*
X0019003Y0209898D01*
X0019143Y0209960D01*
X0019285Y0210018D01*
X0019428Y0210073D01*
X0019573Y0210124D01*
X0019719Y0210171D01*
X0019866Y0210214D01*
X0020014Y0210253D01*
X0020163Y0210289D01*
X0020313Y0210320D01*
X0020464Y0210348D01*
X0020615Y0210372D01*
X0020768Y0210392D01*
X0020920Y0210408D01*
X0021073Y0210420D01*
X0021226Y0210428D01*
X0021379Y0210432D01*
X0021533Y0210432D01*
X0021686Y0210428D01*
X0021839Y0210420D01*
X0021992Y0210408D01*
X0022144Y0210392D01*
X0022297Y0210372D01*
X0022448Y0210348D01*
X0022599Y0210320D01*
X0022749Y0210289D01*
X0022898Y0210253D01*
X0023046Y0210214D01*
X0023193Y0210171D01*
X0023339Y0210124D01*
X0023484Y0210073D01*
X0023627Y0210018D01*
X0023769Y0209960D01*
X0023909Y0209898D01*
X0024048Y0209833D01*
X0024185Y0209764D01*
X0024320Y0209691D01*
X0024453Y0209615D01*
X0024584Y0209535D01*
X0024713Y0209453D01*
X0024840Y0209366D01*
X0024965Y0209277D01*
X0025087Y0209184D01*
X0025206Y0209088D01*
X0025324Y0208989D01*
X0025438Y0208888D01*
X0025550Y0208783D01*
X0025659Y0208675D01*
X0025765Y0208564D01*
X0025869Y0208451D01*
X0025969Y0208335D01*
X0026067Y0208217D01*
X0026161Y0208096D01*
X0026252Y0207973D01*
X0026340Y0207847D01*
X0026424Y0207719D01*
X0026506Y0207589D01*
X0026583Y0207457D01*
X0026658Y0207323D01*
X0026729Y0207187D01*
X0026796Y0207049D01*
X0026860Y0206909D01*
X0026920Y0206768D01*
X0026976Y0206626D01*
X0027029Y0206482D01*
X0027078Y0206336D01*
X0027123Y0206190D01*
X0027164Y0206042D01*
X0027201Y0205894D01*
X0027235Y0205744D01*
X0027265Y0205593D01*
X0027290Y0205442D01*
X0027312Y0205291D01*
X0027330Y0205138D01*
X0027344Y0204986D01*
X0027354Y0204833D01*
X0027360Y0204679D01*
X0027362Y0204526D01*
X0027360Y0204373D01*
X0027354Y0204219D01*
X0027344Y0204066D01*
X0027330Y0203914D01*
X0027312Y0203761D01*
X0027290Y0203610D01*
X0027265Y0203459D01*
X0027235Y0203308D01*
X0027201Y0203158D01*
X0027164Y0203010D01*
X0027123Y0202862D01*
X0027078Y0202716D01*
X0027029Y0202570D01*
X0026976Y0202426D01*
X0026920Y0202284D01*
X0026860Y0202143D01*
X0026796Y0202003D01*
X0026729Y0201865D01*
X0026658Y0201729D01*
X0026583Y0201595D01*
X0026506Y0201463D01*
X0026424Y0201333D01*
X0026340Y0201205D01*
X0026252Y0201079D01*
X0026161Y0200956D01*
X0026067Y0200835D01*
X0025969Y0200717D01*
X0025869Y0200601D01*
X0025765Y0200488D01*
X0025659Y0200377D01*
X0025550Y0200269D01*
X0025438Y0200164D01*
X0025324Y0200063D01*
X0025206Y0199964D01*
X0025087Y0199868D01*
X0024965Y0199775D01*
X0024840Y0199686D01*
X0024713Y0199599D01*
X0024584Y0199517D01*
X0024453Y0199437D01*
X0024320Y0199361D01*
X0024185Y0199288D01*
X0024048Y0199219D01*
X0023909Y0199154D01*
X0023769Y0199092D01*
X0023627Y0199034D01*
X0023484Y0198979D01*
X0023339Y0198928D01*
X0023193Y0198881D01*
X0023046Y0198838D01*
X0022898Y0198799D01*
X0022749Y0198763D01*
X0022599Y0198732D01*
X0022448Y0198704D01*
X0022297Y0198680D01*
X0022144Y0198660D01*
X0021992Y0198644D01*
X0021839Y0198632D01*
X0021686Y0198624D01*
X0021533Y0198620D01*
X0021379Y0198620D01*
X0021226Y0198624D01*
X0021073Y0198632D01*
X0020920Y0198644D01*
X0020768Y0198660D01*
X0020615Y0198680D01*
X0020464Y0198704D01*
X0020313Y0198732D01*
X0020163Y0198763D01*
X0020014Y0198799D01*
X0019866Y0198838D01*
X0019719Y0198881D01*
X0019573Y0198928D01*
X0019428Y0198979D01*
X0019285Y0199034D01*
X0019143Y0199092D01*
X0019003Y0199154D01*
X0018864Y0199219D01*
X0018727Y0199288D01*
X0018592Y0199361D01*
X0018459Y0199437D01*
X0018328Y0199517D01*
X0018199Y0199599D01*
X0018072Y0199686D01*
X0017947Y0199775D01*
X0017825Y0199868D01*
X0017706Y0199964D01*
X0017588Y0200063D01*
X0017474Y0200164D01*
X0017362Y0200269D01*
X0017253Y0200377D01*
X0017147Y0200488D01*
X0017043Y0200601D01*
X0016943Y0200717D01*
X0016845Y0200835D01*
X0016751Y0200956D01*
X0016660Y0201079D01*
X0016572Y0201205D01*
X0016488Y0201333D01*
X0016406Y0201463D01*
X0016329Y0201595D01*
X0016254Y0201729D01*
X0016183Y0201865D01*
X0016116Y0202003D01*
X0016052Y0202143D01*
X0015992Y0202284D01*
X0015936Y0202426D01*
X0015883Y0202570D01*
X0015834Y0202716D01*
X0015789Y0202862D01*
X0015748Y0203010D01*
X0015711Y0203158D01*
X0015677Y0203308D01*
X0015647Y0203459D01*
X0015622Y0203610D01*
X0015600Y0203761D01*
X0015582Y0203914D01*
X0015568Y0204066D01*
X0015558Y0204219D01*
X0015552Y0204373D01*
X0015550Y0204526D01*
X0150274Y0214408D02*
X0150276Y0214492D01*
X0150282Y0214575D01*
X0150292Y0214658D01*
X0150306Y0214741D01*
X0150323Y0214823D01*
X0150345Y0214904D01*
X0150370Y0214983D01*
X0150399Y0215062D01*
X0150432Y0215139D01*
X0150468Y0215214D01*
X0150508Y0215288D01*
X0150551Y0215360D01*
X0150598Y0215429D01*
X0150648Y0215496D01*
X0150701Y0215561D01*
X0150757Y0215623D01*
X0150815Y0215683D01*
X0150877Y0215740D01*
X0150941Y0215793D01*
X0151008Y0215844D01*
X0151077Y0215891D01*
X0151148Y0215936D01*
X0151221Y0215976D01*
X0151296Y0216013D01*
X0151373Y0216047D01*
X0151451Y0216077D01*
X0151530Y0216103D01*
X0151611Y0216126D01*
X0151693Y0216144D01*
X0151775Y0216159D01*
X0151858Y0216170D01*
X0151941Y0216177D01*
X0152025Y0216180D01*
X0152109Y0216179D01*
X0152192Y0216174D01*
X0152276Y0216165D01*
X0152358Y0216152D01*
X0152440Y0216136D01*
X0152521Y0216115D01*
X0152602Y0216091D01*
X0152680Y0216063D01*
X0152758Y0216031D01*
X0152834Y0215995D01*
X0152908Y0215956D01*
X0152980Y0215914D01*
X0153050Y0215868D01*
X0153118Y0215819D01*
X0153183Y0215767D01*
X0153246Y0215712D01*
X0153306Y0215654D01*
X0153364Y0215593D01*
X0153418Y0215529D01*
X0153470Y0215463D01*
X0153518Y0215395D01*
X0153563Y0215324D01*
X0153604Y0215251D01*
X0153643Y0215177D01*
X0153677Y0215101D01*
X0153708Y0215023D01*
X0153735Y0214944D01*
X0153759Y0214863D01*
X0153778Y0214782D01*
X0153794Y0214700D01*
X0153806Y0214617D01*
X0153814Y0214533D01*
X0153818Y0214450D01*
X0153818Y0214366D01*
X0153814Y0214283D01*
X0153806Y0214199D01*
X0153794Y0214116D01*
X0153778Y0214034D01*
X0153759Y0213953D01*
X0153735Y0213872D01*
X0153708Y0213793D01*
X0153677Y0213715D01*
X0153643Y0213639D01*
X0153604Y0213565D01*
X0153563Y0213492D01*
X0153518Y0213421D01*
X0153470Y0213353D01*
X0153418Y0213287D01*
X0153364Y0213223D01*
X0153306Y0213162D01*
X0153246Y0213104D01*
X0153183Y0213049D01*
X0153118Y0212997D01*
X0153050Y0212948D01*
X0152980Y0212902D01*
X0152908Y0212860D01*
X0152834Y0212821D01*
X0152758Y0212785D01*
X0152680Y0212753D01*
X0152602Y0212725D01*
X0152521Y0212701D01*
X0152440Y0212680D01*
X0152358Y0212664D01*
X0152276Y0212651D01*
X0152192Y0212642D01*
X0152109Y0212637D01*
X0152025Y0212636D01*
X0151941Y0212639D01*
X0151858Y0212646D01*
X0151775Y0212657D01*
X0151693Y0212672D01*
X0151611Y0212690D01*
X0151530Y0212713D01*
X0151451Y0212739D01*
X0151373Y0212769D01*
X0151296Y0212803D01*
X0151221Y0212840D01*
X0151148Y0212880D01*
X0151077Y0212925D01*
X0151008Y0212972D01*
X0150941Y0213023D01*
X0150877Y0213076D01*
X0150815Y0213133D01*
X0150757Y0213193D01*
X0150701Y0213255D01*
X0150648Y0213320D01*
X0150598Y0213387D01*
X0150551Y0213456D01*
X0150508Y0213528D01*
X0150468Y0213602D01*
X0150432Y0213677D01*
X0150399Y0213754D01*
X0150370Y0213833D01*
X0150345Y0213912D01*
X0150323Y0213993D01*
X0150306Y0214075D01*
X0150292Y0214158D01*
X0150282Y0214241D01*
X0150276Y0214324D01*
X0150274Y0214408D01*
X0150274Y0231731D02*
X0150276Y0231815D01*
X0150282Y0231898D01*
X0150292Y0231981D01*
X0150306Y0232064D01*
X0150323Y0232146D01*
X0150345Y0232227D01*
X0150370Y0232306D01*
X0150399Y0232385D01*
X0150432Y0232462D01*
X0150468Y0232537D01*
X0150508Y0232611D01*
X0150551Y0232683D01*
X0150598Y0232752D01*
X0150648Y0232819D01*
X0150701Y0232884D01*
X0150757Y0232946D01*
X0150815Y0233006D01*
X0150877Y0233063D01*
X0150941Y0233116D01*
X0151008Y0233167D01*
X0151077Y0233214D01*
X0151148Y0233259D01*
X0151221Y0233299D01*
X0151296Y0233336D01*
X0151373Y0233370D01*
X0151451Y0233400D01*
X0151530Y0233426D01*
X0151611Y0233449D01*
X0151693Y0233467D01*
X0151775Y0233482D01*
X0151858Y0233493D01*
X0151941Y0233500D01*
X0152025Y0233503D01*
X0152109Y0233502D01*
X0152192Y0233497D01*
X0152276Y0233488D01*
X0152358Y0233475D01*
X0152440Y0233459D01*
X0152521Y0233438D01*
X0152602Y0233414D01*
X0152680Y0233386D01*
X0152758Y0233354D01*
X0152834Y0233318D01*
X0152908Y0233279D01*
X0152980Y0233237D01*
X0153050Y0233191D01*
X0153118Y0233142D01*
X0153183Y0233090D01*
X0153246Y0233035D01*
X0153306Y0232977D01*
X0153364Y0232916D01*
X0153418Y0232852D01*
X0153470Y0232786D01*
X0153518Y0232718D01*
X0153563Y0232647D01*
X0153604Y0232574D01*
X0153643Y0232500D01*
X0153677Y0232424D01*
X0153708Y0232346D01*
X0153735Y0232267D01*
X0153759Y0232186D01*
X0153778Y0232105D01*
X0153794Y0232023D01*
X0153806Y0231940D01*
X0153814Y0231856D01*
X0153818Y0231773D01*
X0153818Y0231689D01*
X0153814Y0231606D01*
X0153806Y0231522D01*
X0153794Y0231439D01*
X0153778Y0231357D01*
X0153759Y0231276D01*
X0153735Y0231195D01*
X0153708Y0231116D01*
X0153677Y0231038D01*
X0153643Y0230962D01*
X0153604Y0230888D01*
X0153563Y0230815D01*
X0153518Y0230744D01*
X0153470Y0230676D01*
X0153418Y0230610D01*
X0153364Y0230546D01*
X0153306Y0230485D01*
X0153246Y0230427D01*
X0153183Y0230372D01*
X0153118Y0230320D01*
X0153050Y0230271D01*
X0152980Y0230225D01*
X0152908Y0230183D01*
X0152834Y0230144D01*
X0152758Y0230108D01*
X0152680Y0230076D01*
X0152602Y0230048D01*
X0152521Y0230024D01*
X0152440Y0230003D01*
X0152358Y0229987D01*
X0152276Y0229974D01*
X0152192Y0229965D01*
X0152109Y0229960D01*
X0152025Y0229959D01*
X0151941Y0229962D01*
X0151858Y0229969D01*
X0151775Y0229980D01*
X0151693Y0229995D01*
X0151611Y0230013D01*
X0151530Y0230036D01*
X0151451Y0230062D01*
X0151373Y0230092D01*
X0151296Y0230126D01*
X0151221Y0230163D01*
X0151148Y0230203D01*
X0151077Y0230248D01*
X0151008Y0230295D01*
X0150941Y0230346D01*
X0150877Y0230399D01*
X0150815Y0230456D01*
X0150757Y0230516D01*
X0150701Y0230578D01*
X0150648Y0230643D01*
X0150598Y0230710D01*
X0150551Y0230779D01*
X0150508Y0230851D01*
X0150468Y0230925D01*
X0150432Y0231000D01*
X0150399Y0231077D01*
X0150370Y0231156D01*
X0150345Y0231235D01*
X0150323Y0231316D01*
X0150306Y0231398D01*
X0150292Y0231481D01*
X0150282Y0231564D01*
X0150276Y0231647D01*
X0150274Y0231731D01*
X0194683Y0204526D02*
X0194685Y0204679D01*
X0194691Y0204833D01*
X0194701Y0204986D01*
X0194715Y0205138D01*
X0194733Y0205291D01*
X0194755Y0205442D01*
X0194780Y0205593D01*
X0194810Y0205744D01*
X0194844Y0205894D01*
X0194881Y0206042D01*
X0194922Y0206190D01*
X0194967Y0206336D01*
X0195016Y0206482D01*
X0195069Y0206626D01*
X0195125Y0206768D01*
X0195185Y0206909D01*
X0195249Y0207049D01*
X0195316Y0207187D01*
X0195387Y0207323D01*
X0195462Y0207457D01*
X0195539Y0207589D01*
X0195621Y0207719D01*
X0195705Y0207847D01*
X0195793Y0207973D01*
X0195884Y0208096D01*
X0195978Y0208217D01*
X0196076Y0208335D01*
X0196176Y0208451D01*
X0196280Y0208564D01*
X0196386Y0208675D01*
X0196495Y0208783D01*
X0196607Y0208888D01*
X0196721Y0208989D01*
X0196839Y0209088D01*
X0196958Y0209184D01*
X0197080Y0209277D01*
X0197205Y0209366D01*
X0197332Y0209453D01*
X0197461Y0209535D01*
X0197592Y0209615D01*
X0197725Y0209691D01*
X0197860Y0209764D01*
X0197997Y0209833D01*
X0198136Y0209898D01*
X0198276Y0209960D01*
X0198418Y0210018D01*
X0198561Y0210073D01*
X0198706Y0210124D01*
X0198852Y0210171D01*
X0198999Y0210214D01*
X0199147Y0210253D01*
X0199296Y0210289D01*
X0199446Y0210320D01*
X0199597Y0210348D01*
X0199748Y0210372D01*
X0199901Y0210392D01*
X0200053Y0210408D01*
X0200206Y0210420D01*
X0200359Y0210428D01*
X0200512Y0210432D01*
X0200666Y0210432D01*
X0200819Y0210428D01*
X0200972Y0210420D01*
X0201125Y0210408D01*
X0201277Y0210392D01*
X0201430Y0210372D01*
X0201581Y0210348D01*
X0201732Y0210320D01*
X0201882Y0210289D01*
X0202031Y0210253D01*
X0202179Y0210214D01*
X0202326Y0210171D01*
X0202472Y0210124D01*
X0202617Y0210073D01*
X0202760Y0210018D01*
X0202902Y0209960D01*
X0203042Y0209898D01*
X0203181Y0209833D01*
X0203318Y0209764D01*
X0203453Y0209691D01*
X0203586Y0209615D01*
X0203717Y0209535D01*
X0203846Y0209453D01*
X0203973Y0209366D01*
X0204098Y0209277D01*
X0204220Y0209184D01*
X0204339Y0209088D01*
X0204457Y0208989D01*
X0204571Y0208888D01*
X0204683Y0208783D01*
X0204792Y0208675D01*
X0204898Y0208564D01*
X0205002Y0208451D01*
X0205102Y0208335D01*
X0205200Y0208217D01*
X0205294Y0208096D01*
X0205385Y0207973D01*
X0205473Y0207847D01*
X0205557Y0207719D01*
X0205639Y0207589D01*
X0205716Y0207457D01*
X0205791Y0207323D01*
X0205862Y0207187D01*
X0205929Y0207049D01*
X0205993Y0206909D01*
X0206053Y0206768D01*
X0206109Y0206626D01*
X0206162Y0206482D01*
X0206211Y0206336D01*
X0206256Y0206190D01*
X0206297Y0206042D01*
X0206334Y0205894D01*
X0206368Y0205744D01*
X0206398Y0205593D01*
X0206423Y0205442D01*
X0206445Y0205291D01*
X0206463Y0205138D01*
X0206477Y0204986D01*
X0206487Y0204833D01*
X0206493Y0204679D01*
X0206495Y0204526D01*
X0206493Y0204373D01*
X0206487Y0204219D01*
X0206477Y0204066D01*
X0206463Y0203914D01*
X0206445Y0203761D01*
X0206423Y0203610D01*
X0206398Y0203459D01*
X0206368Y0203308D01*
X0206334Y0203158D01*
X0206297Y0203010D01*
X0206256Y0202862D01*
X0206211Y0202716D01*
X0206162Y0202570D01*
X0206109Y0202426D01*
X0206053Y0202284D01*
X0205993Y0202143D01*
X0205929Y0202003D01*
X0205862Y0201865D01*
X0205791Y0201729D01*
X0205716Y0201595D01*
X0205639Y0201463D01*
X0205557Y0201333D01*
X0205473Y0201205D01*
X0205385Y0201079D01*
X0205294Y0200956D01*
X0205200Y0200835D01*
X0205102Y0200717D01*
X0205002Y0200601D01*
X0204898Y0200488D01*
X0204792Y0200377D01*
X0204683Y0200269D01*
X0204571Y0200164D01*
X0204457Y0200063D01*
X0204339Y0199964D01*
X0204220Y0199868D01*
X0204098Y0199775D01*
X0203973Y0199686D01*
X0203846Y0199599D01*
X0203717Y0199517D01*
X0203586Y0199437D01*
X0203453Y0199361D01*
X0203318Y0199288D01*
X0203181Y0199219D01*
X0203042Y0199154D01*
X0202902Y0199092D01*
X0202760Y0199034D01*
X0202617Y0198979D01*
X0202472Y0198928D01*
X0202326Y0198881D01*
X0202179Y0198838D01*
X0202031Y0198799D01*
X0201882Y0198763D01*
X0201732Y0198732D01*
X0201581Y0198704D01*
X0201430Y0198680D01*
X0201277Y0198660D01*
X0201125Y0198644D01*
X0200972Y0198632D01*
X0200819Y0198624D01*
X0200666Y0198620D01*
X0200512Y0198620D01*
X0200359Y0198624D01*
X0200206Y0198632D01*
X0200053Y0198644D01*
X0199901Y0198660D01*
X0199748Y0198680D01*
X0199597Y0198704D01*
X0199446Y0198732D01*
X0199296Y0198763D01*
X0199147Y0198799D01*
X0198999Y0198838D01*
X0198852Y0198881D01*
X0198706Y0198928D01*
X0198561Y0198979D01*
X0198418Y0199034D01*
X0198276Y0199092D01*
X0198136Y0199154D01*
X0197997Y0199219D01*
X0197860Y0199288D01*
X0197725Y0199361D01*
X0197592Y0199437D01*
X0197461Y0199517D01*
X0197332Y0199599D01*
X0197205Y0199686D01*
X0197080Y0199775D01*
X0196958Y0199868D01*
X0196839Y0199964D01*
X0196721Y0200063D01*
X0196607Y0200164D01*
X0196495Y0200269D01*
X0196386Y0200377D01*
X0196280Y0200488D01*
X0196176Y0200601D01*
X0196076Y0200717D01*
X0195978Y0200835D01*
X0195884Y0200956D01*
X0195793Y0201079D01*
X0195705Y0201205D01*
X0195621Y0201333D01*
X0195539Y0201463D01*
X0195462Y0201595D01*
X0195387Y0201729D01*
X0195316Y0201865D01*
X0195249Y0202003D01*
X0195185Y0202143D01*
X0195125Y0202284D01*
X0195069Y0202426D01*
X0195016Y0202570D01*
X0194967Y0202716D01*
X0194922Y0202862D01*
X0194881Y0203010D01*
X0194844Y0203158D01*
X0194810Y0203308D01*
X0194780Y0203459D01*
X0194755Y0203610D01*
X0194733Y0203761D01*
X0194715Y0203914D01*
X0194701Y0204066D01*
X0194691Y0204219D01*
X0194685Y0204373D01*
X0194683Y0204526D01*
X0179093Y0152046D02*
X0179095Y0152130D01*
X0179101Y0152213D01*
X0179111Y0152296D01*
X0179125Y0152379D01*
X0179142Y0152461D01*
X0179164Y0152542D01*
X0179189Y0152621D01*
X0179218Y0152700D01*
X0179251Y0152777D01*
X0179287Y0152852D01*
X0179327Y0152926D01*
X0179370Y0152998D01*
X0179417Y0153067D01*
X0179467Y0153134D01*
X0179520Y0153199D01*
X0179576Y0153261D01*
X0179634Y0153321D01*
X0179696Y0153378D01*
X0179760Y0153431D01*
X0179827Y0153482D01*
X0179896Y0153529D01*
X0179967Y0153574D01*
X0180040Y0153614D01*
X0180115Y0153651D01*
X0180192Y0153685D01*
X0180270Y0153715D01*
X0180349Y0153741D01*
X0180430Y0153764D01*
X0180512Y0153782D01*
X0180594Y0153797D01*
X0180677Y0153808D01*
X0180760Y0153815D01*
X0180844Y0153818D01*
X0180928Y0153817D01*
X0181011Y0153812D01*
X0181095Y0153803D01*
X0181177Y0153790D01*
X0181259Y0153774D01*
X0181340Y0153753D01*
X0181421Y0153729D01*
X0181499Y0153701D01*
X0181577Y0153669D01*
X0181653Y0153633D01*
X0181727Y0153594D01*
X0181799Y0153552D01*
X0181869Y0153506D01*
X0181937Y0153457D01*
X0182002Y0153405D01*
X0182065Y0153350D01*
X0182125Y0153292D01*
X0182183Y0153231D01*
X0182237Y0153167D01*
X0182289Y0153101D01*
X0182337Y0153033D01*
X0182382Y0152962D01*
X0182423Y0152889D01*
X0182462Y0152815D01*
X0182496Y0152739D01*
X0182527Y0152661D01*
X0182554Y0152582D01*
X0182578Y0152501D01*
X0182597Y0152420D01*
X0182613Y0152338D01*
X0182625Y0152255D01*
X0182633Y0152171D01*
X0182637Y0152088D01*
X0182637Y0152004D01*
X0182633Y0151921D01*
X0182625Y0151837D01*
X0182613Y0151754D01*
X0182597Y0151672D01*
X0182578Y0151591D01*
X0182554Y0151510D01*
X0182527Y0151431D01*
X0182496Y0151353D01*
X0182462Y0151277D01*
X0182423Y0151203D01*
X0182382Y0151130D01*
X0182337Y0151059D01*
X0182289Y0150991D01*
X0182237Y0150925D01*
X0182183Y0150861D01*
X0182125Y0150800D01*
X0182065Y0150742D01*
X0182002Y0150687D01*
X0181937Y0150635D01*
X0181869Y0150586D01*
X0181799Y0150540D01*
X0181727Y0150498D01*
X0181653Y0150459D01*
X0181577Y0150423D01*
X0181499Y0150391D01*
X0181421Y0150363D01*
X0181340Y0150339D01*
X0181259Y0150318D01*
X0181177Y0150302D01*
X0181095Y0150289D01*
X0181011Y0150280D01*
X0180928Y0150275D01*
X0180844Y0150274D01*
X0180760Y0150277D01*
X0180677Y0150284D01*
X0180594Y0150295D01*
X0180512Y0150310D01*
X0180430Y0150328D01*
X0180349Y0150351D01*
X0180270Y0150377D01*
X0180192Y0150407D01*
X0180115Y0150441D01*
X0180040Y0150478D01*
X0179967Y0150518D01*
X0179896Y0150563D01*
X0179827Y0150610D01*
X0179760Y0150661D01*
X0179696Y0150714D01*
X0179634Y0150771D01*
X0179576Y0150831D01*
X0179520Y0150893D01*
X0179467Y0150958D01*
X0179417Y0151025D01*
X0179370Y0151094D01*
X0179327Y0151166D01*
X0179287Y0151240D01*
X0179251Y0151315D01*
X0179218Y0151392D01*
X0179189Y0151471D01*
X0179164Y0151550D01*
X0179142Y0151631D01*
X0179125Y0151713D01*
X0179111Y0151796D01*
X0179101Y0151879D01*
X0179095Y0151962D01*
X0179093Y0152046D01*
X0161770Y0152046D02*
X0161772Y0152130D01*
X0161778Y0152213D01*
X0161788Y0152296D01*
X0161802Y0152379D01*
X0161819Y0152461D01*
X0161841Y0152542D01*
X0161866Y0152621D01*
X0161895Y0152700D01*
X0161928Y0152777D01*
X0161964Y0152852D01*
X0162004Y0152926D01*
X0162047Y0152998D01*
X0162094Y0153067D01*
X0162144Y0153134D01*
X0162197Y0153199D01*
X0162253Y0153261D01*
X0162311Y0153321D01*
X0162373Y0153378D01*
X0162437Y0153431D01*
X0162504Y0153482D01*
X0162573Y0153529D01*
X0162644Y0153574D01*
X0162717Y0153614D01*
X0162792Y0153651D01*
X0162869Y0153685D01*
X0162947Y0153715D01*
X0163026Y0153741D01*
X0163107Y0153764D01*
X0163189Y0153782D01*
X0163271Y0153797D01*
X0163354Y0153808D01*
X0163437Y0153815D01*
X0163521Y0153818D01*
X0163605Y0153817D01*
X0163688Y0153812D01*
X0163772Y0153803D01*
X0163854Y0153790D01*
X0163936Y0153774D01*
X0164017Y0153753D01*
X0164098Y0153729D01*
X0164176Y0153701D01*
X0164254Y0153669D01*
X0164330Y0153633D01*
X0164404Y0153594D01*
X0164476Y0153552D01*
X0164546Y0153506D01*
X0164614Y0153457D01*
X0164679Y0153405D01*
X0164742Y0153350D01*
X0164802Y0153292D01*
X0164860Y0153231D01*
X0164914Y0153167D01*
X0164966Y0153101D01*
X0165014Y0153033D01*
X0165059Y0152962D01*
X0165100Y0152889D01*
X0165139Y0152815D01*
X0165173Y0152739D01*
X0165204Y0152661D01*
X0165231Y0152582D01*
X0165255Y0152501D01*
X0165274Y0152420D01*
X0165290Y0152338D01*
X0165302Y0152255D01*
X0165310Y0152171D01*
X0165314Y0152088D01*
X0165314Y0152004D01*
X0165310Y0151921D01*
X0165302Y0151837D01*
X0165290Y0151754D01*
X0165274Y0151672D01*
X0165255Y0151591D01*
X0165231Y0151510D01*
X0165204Y0151431D01*
X0165173Y0151353D01*
X0165139Y0151277D01*
X0165100Y0151203D01*
X0165059Y0151130D01*
X0165014Y0151059D01*
X0164966Y0150991D01*
X0164914Y0150925D01*
X0164860Y0150861D01*
X0164802Y0150800D01*
X0164742Y0150742D01*
X0164679Y0150687D01*
X0164614Y0150635D01*
X0164546Y0150586D01*
X0164476Y0150540D01*
X0164404Y0150498D01*
X0164330Y0150459D01*
X0164254Y0150423D01*
X0164176Y0150391D01*
X0164098Y0150363D01*
X0164017Y0150339D01*
X0163936Y0150318D01*
X0163854Y0150302D01*
X0163772Y0150289D01*
X0163688Y0150280D01*
X0163605Y0150275D01*
X0163521Y0150274D01*
X0163437Y0150277D01*
X0163354Y0150284D01*
X0163271Y0150295D01*
X0163189Y0150310D01*
X0163107Y0150328D01*
X0163026Y0150351D01*
X0162947Y0150377D01*
X0162869Y0150407D01*
X0162792Y0150441D01*
X0162717Y0150478D01*
X0162644Y0150518D01*
X0162573Y0150563D01*
X0162504Y0150610D01*
X0162437Y0150661D01*
X0162373Y0150714D01*
X0162311Y0150771D01*
X0162253Y0150831D01*
X0162197Y0150893D01*
X0162144Y0150958D01*
X0162094Y0151025D01*
X0162047Y0151094D01*
X0162004Y0151166D01*
X0161964Y0151240D01*
X0161928Y0151315D01*
X0161895Y0151392D01*
X0161866Y0151471D01*
X0161841Y0151550D01*
X0161819Y0151631D01*
X0161802Y0151713D01*
X0161788Y0151796D01*
X0161778Y0151879D01*
X0161772Y0151962D01*
X0161770Y0152046D01*
X0184841Y0021456D02*
X0184843Y0021609D01*
X0184849Y0021763D01*
X0184859Y0021916D01*
X0184873Y0022068D01*
X0184891Y0022221D01*
X0184913Y0022372D01*
X0184938Y0022523D01*
X0184968Y0022674D01*
X0185002Y0022824D01*
X0185039Y0022972D01*
X0185080Y0023120D01*
X0185125Y0023266D01*
X0185174Y0023412D01*
X0185227Y0023556D01*
X0185283Y0023698D01*
X0185343Y0023839D01*
X0185407Y0023979D01*
X0185474Y0024117D01*
X0185545Y0024253D01*
X0185620Y0024387D01*
X0185697Y0024519D01*
X0185779Y0024649D01*
X0185863Y0024777D01*
X0185951Y0024903D01*
X0186042Y0025026D01*
X0186136Y0025147D01*
X0186234Y0025265D01*
X0186334Y0025381D01*
X0186438Y0025494D01*
X0186544Y0025605D01*
X0186653Y0025713D01*
X0186765Y0025818D01*
X0186879Y0025919D01*
X0186997Y0026018D01*
X0187116Y0026114D01*
X0187238Y0026207D01*
X0187363Y0026296D01*
X0187490Y0026383D01*
X0187619Y0026465D01*
X0187750Y0026545D01*
X0187883Y0026621D01*
X0188018Y0026694D01*
X0188155Y0026763D01*
X0188294Y0026828D01*
X0188434Y0026890D01*
X0188576Y0026948D01*
X0188719Y0027003D01*
X0188864Y0027054D01*
X0189010Y0027101D01*
X0189157Y0027144D01*
X0189305Y0027183D01*
X0189454Y0027219D01*
X0189604Y0027250D01*
X0189755Y0027278D01*
X0189906Y0027302D01*
X0190059Y0027322D01*
X0190211Y0027338D01*
X0190364Y0027350D01*
X0190517Y0027358D01*
X0190670Y0027362D01*
X0190824Y0027362D01*
X0190977Y0027358D01*
X0191130Y0027350D01*
X0191283Y0027338D01*
X0191435Y0027322D01*
X0191588Y0027302D01*
X0191739Y0027278D01*
X0191890Y0027250D01*
X0192040Y0027219D01*
X0192189Y0027183D01*
X0192337Y0027144D01*
X0192484Y0027101D01*
X0192630Y0027054D01*
X0192775Y0027003D01*
X0192918Y0026948D01*
X0193060Y0026890D01*
X0193200Y0026828D01*
X0193339Y0026763D01*
X0193476Y0026694D01*
X0193611Y0026621D01*
X0193744Y0026545D01*
X0193875Y0026465D01*
X0194004Y0026383D01*
X0194131Y0026296D01*
X0194256Y0026207D01*
X0194378Y0026114D01*
X0194497Y0026018D01*
X0194615Y0025919D01*
X0194729Y0025818D01*
X0194841Y0025713D01*
X0194950Y0025605D01*
X0195056Y0025494D01*
X0195160Y0025381D01*
X0195260Y0025265D01*
X0195358Y0025147D01*
X0195452Y0025026D01*
X0195543Y0024903D01*
X0195631Y0024777D01*
X0195715Y0024649D01*
X0195797Y0024519D01*
X0195874Y0024387D01*
X0195949Y0024253D01*
X0196020Y0024117D01*
X0196087Y0023979D01*
X0196151Y0023839D01*
X0196211Y0023698D01*
X0196267Y0023556D01*
X0196320Y0023412D01*
X0196369Y0023266D01*
X0196414Y0023120D01*
X0196455Y0022972D01*
X0196492Y0022824D01*
X0196526Y0022674D01*
X0196556Y0022523D01*
X0196581Y0022372D01*
X0196603Y0022221D01*
X0196621Y0022068D01*
X0196635Y0021916D01*
X0196645Y0021763D01*
X0196651Y0021609D01*
X0196653Y0021456D01*
X0196651Y0021303D01*
X0196645Y0021149D01*
X0196635Y0020996D01*
X0196621Y0020844D01*
X0196603Y0020691D01*
X0196581Y0020540D01*
X0196556Y0020389D01*
X0196526Y0020238D01*
X0196492Y0020088D01*
X0196455Y0019940D01*
X0196414Y0019792D01*
X0196369Y0019646D01*
X0196320Y0019500D01*
X0196267Y0019356D01*
X0196211Y0019214D01*
X0196151Y0019073D01*
X0196087Y0018933D01*
X0196020Y0018795D01*
X0195949Y0018659D01*
X0195874Y0018525D01*
X0195797Y0018393D01*
X0195715Y0018263D01*
X0195631Y0018135D01*
X0195543Y0018009D01*
X0195452Y0017886D01*
X0195358Y0017765D01*
X0195260Y0017647D01*
X0195160Y0017531D01*
X0195056Y0017418D01*
X0194950Y0017307D01*
X0194841Y0017199D01*
X0194729Y0017094D01*
X0194615Y0016993D01*
X0194497Y0016894D01*
X0194378Y0016798D01*
X0194256Y0016705D01*
X0194131Y0016616D01*
X0194004Y0016529D01*
X0193875Y0016447D01*
X0193744Y0016367D01*
X0193611Y0016291D01*
X0193476Y0016218D01*
X0193339Y0016149D01*
X0193200Y0016084D01*
X0193060Y0016022D01*
X0192918Y0015964D01*
X0192775Y0015909D01*
X0192630Y0015858D01*
X0192484Y0015811D01*
X0192337Y0015768D01*
X0192189Y0015729D01*
X0192040Y0015693D01*
X0191890Y0015662D01*
X0191739Y0015634D01*
X0191588Y0015610D01*
X0191435Y0015590D01*
X0191283Y0015574D01*
X0191130Y0015562D01*
X0190977Y0015554D01*
X0190824Y0015550D01*
X0190670Y0015550D01*
X0190517Y0015554D01*
X0190364Y0015562D01*
X0190211Y0015574D01*
X0190059Y0015590D01*
X0189906Y0015610D01*
X0189755Y0015634D01*
X0189604Y0015662D01*
X0189454Y0015693D01*
X0189305Y0015729D01*
X0189157Y0015768D01*
X0189010Y0015811D01*
X0188864Y0015858D01*
X0188719Y0015909D01*
X0188576Y0015964D01*
X0188434Y0016022D01*
X0188294Y0016084D01*
X0188155Y0016149D01*
X0188018Y0016218D01*
X0187883Y0016291D01*
X0187750Y0016367D01*
X0187619Y0016447D01*
X0187490Y0016529D01*
X0187363Y0016616D01*
X0187238Y0016705D01*
X0187116Y0016798D01*
X0186997Y0016894D01*
X0186879Y0016993D01*
X0186765Y0017094D01*
X0186653Y0017199D01*
X0186544Y0017307D01*
X0186438Y0017418D01*
X0186334Y0017531D01*
X0186234Y0017647D01*
X0186136Y0017765D01*
X0186042Y0017886D01*
X0185951Y0018009D01*
X0185863Y0018135D01*
X0185779Y0018263D01*
X0185697Y0018393D01*
X0185620Y0018525D01*
X0185545Y0018659D01*
X0185474Y0018795D01*
X0185407Y0018933D01*
X0185343Y0019073D01*
X0185283Y0019214D01*
X0185227Y0019356D01*
X0185174Y0019500D01*
X0185125Y0019646D01*
X0185080Y0019792D01*
X0185039Y0019940D01*
X0185002Y0020088D01*
X0184968Y0020238D01*
X0184938Y0020389D01*
X0184913Y0020540D01*
X0184891Y0020691D01*
X0184873Y0020844D01*
X0184859Y0020996D01*
X0184849Y0021149D01*
X0184843Y0021303D01*
X0184841Y0021456D01*
X0329408Y0214408D02*
X0329410Y0214492D01*
X0329416Y0214575D01*
X0329426Y0214658D01*
X0329440Y0214741D01*
X0329457Y0214823D01*
X0329479Y0214904D01*
X0329504Y0214983D01*
X0329533Y0215062D01*
X0329566Y0215139D01*
X0329602Y0215214D01*
X0329642Y0215288D01*
X0329685Y0215360D01*
X0329732Y0215429D01*
X0329782Y0215496D01*
X0329835Y0215561D01*
X0329891Y0215623D01*
X0329949Y0215683D01*
X0330011Y0215740D01*
X0330075Y0215793D01*
X0330142Y0215844D01*
X0330211Y0215891D01*
X0330282Y0215936D01*
X0330355Y0215976D01*
X0330430Y0216013D01*
X0330507Y0216047D01*
X0330585Y0216077D01*
X0330664Y0216103D01*
X0330745Y0216126D01*
X0330827Y0216144D01*
X0330909Y0216159D01*
X0330992Y0216170D01*
X0331075Y0216177D01*
X0331159Y0216180D01*
X0331243Y0216179D01*
X0331326Y0216174D01*
X0331410Y0216165D01*
X0331492Y0216152D01*
X0331574Y0216136D01*
X0331655Y0216115D01*
X0331736Y0216091D01*
X0331814Y0216063D01*
X0331892Y0216031D01*
X0331968Y0215995D01*
X0332042Y0215956D01*
X0332114Y0215914D01*
X0332184Y0215868D01*
X0332252Y0215819D01*
X0332317Y0215767D01*
X0332380Y0215712D01*
X0332440Y0215654D01*
X0332498Y0215593D01*
X0332552Y0215529D01*
X0332604Y0215463D01*
X0332652Y0215395D01*
X0332697Y0215324D01*
X0332738Y0215251D01*
X0332777Y0215177D01*
X0332811Y0215101D01*
X0332842Y0215023D01*
X0332869Y0214944D01*
X0332893Y0214863D01*
X0332912Y0214782D01*
X0332928Y0214700D01*
X0332940Y0214617D01*
X0332948Y0214533D01*
X0332952Y0214450D01*
X0332952Y0214366D01*
X0332948Y0214283D01*
X0332940Y0214199D01*
X0332928Y0214116D01*
X0332912Y0214034D01*
X0332893Y0213953D01*
X0332869Y0213872D01*
X0332842Y0213793D01*
X0332811Y0213715D01*
X0332777Y0213639D01*
X0332738Y0213565D01*
X0332697Y0213492D01*
X0332652Y0213421D01*
X0332604Y0213353D01*
X0332552Y0213287D01*
X0332498Y0213223D01*
X0332440Y0213162D01*
X0332380Y0213104D01*
X0332317Y0213049D01*
X0332252Y0212997D01*
X0332184Y0212948D01*
X0332114Y0212902D01*
X0332042Y0212860D01*
X0331968Y0212821D01*
X0331892Y0212785D01*
X0331814Y0212753D01*
X0331736Y0212725D01*
X0331655Y0212701D01*
X0331574Y0212680D01*
X0331492Y0212664D01*
X0331410Y0212651D01*
X0331326Y0212642D01*
X0331243Y0212637D01*
X0331159Y0212636D01*
X0331075Y0212639D01*
X0330992Y0212646D01*
X0330909Y0212657D01*
X0330827Y0212672D01*
X0330745Y0212690D01*
X0330664Y0212713D01*
X0330585Y0212739D01*
X0330507Y0212769D01*
X0330430Y0212803D01*
X0330355Y0212840D01*
X0330282Y0212880D01*
X0330211Y0212925D01*
X0330142Y0212972D01*
X0330075Y0213023D01*
X0330011Y0213076D01*
X0329949Y0213133D01*
X0329891Y0213193D01*
X0329835Y0213255D01*
X0329782Y0213320D01*
X0329732Y0213387D01*
X0329685Y0213456D01*
X0329642Y0213528D01*
X0329602Y0213602D01*
X0329566Y0213677D01*
X0329533Y0213754D01*
X0329504Y0213833D01*
X0329479Y0213912D01*
X0329457Y0213993D01*
X0329440Y0214075D01*
X0329426Y0214158D01*
X0329416Y0214241D01*
X0329410Y0214324D01*
X0329408Y0214408D01*
X0329408Y0231731D02*
X0329410Y0231815D01*
X0329416Y0231898D01*
X0329426Y0231981D01*
X0329440Y0232064D01*
X0329457Y0232146D01*
X0329479Y0232227D01*
X0329504Y0232306D01*
X0329533Y0232385D01*
X0329566Y0232462D01*
X0329602Y0232537D01*
X0329642Y0232611D01*
X0329685Y0232683D01*
X0329732Y0232752D01*
X0329782Y0232819D01*
X0329835Y0232884D01*
X0329891Y0232946D01*
X0329949Y0233006D01*
X0330011Y0233063D01*
X0330075Y0233116D01*
X0330142Y0233167D01*
X0330211Y0233214D01*
X0330282Y0233259D01*
X0330355Y0233299D01*
X0330430Y0233336D01*
X0330507Y0233370D01*
X0330585Y0233400D01*
X0330664Y0233426D01*
X0330745Y0233449D01*
X0330827Y0233467D01*
X0330909Y0233482D01*
X0330992Y0233493D01*
X0331075Y0233500D01*
X0331159Y0233503D01*
X0331243Y0233502D01*
X0331326Y0233497D01*
X0331410Y0233488D01*
X0331492Y0233475D01*
X0331574Y0233459D01*
X0331655Y0233438D01*
X0331736Y0233414D01*
X0331814Y0233386D01*
X0331892Y0233354D01*
X0331968Y0233318D01*
X0332042Y0233279D01*
X0332114Y0233237D01*
X0332184Y0233191D01*
X0332252Y0233142D01*
X0332317Y0233090D01*
X0332380Y0233035D01*
X0332440Y0232977D01*
X0332498Y0232916D01*
X0332552Y0232852D01*
X0332604Y0232786D01*
X0332652Y0232718D01*
X0332697Y0232647D01*
X0332738Y0232574D01*
X0332777Y0232500D01*
X0332811Y0232424D01*
X0332842Y0232346D01*
X0332869Y0232267D01*
X0332893Y0232186D01*
X0332912Y0232105D01*
X0332928Y0232023D01*
X0332940Y0231940D01*
X0332948Y0231856D01*
X0332952Y0231773D01*
X0332952Y0231689D01*
X0332948Y0231606D01*
X0332940Y0231522D01*
X0332928Y0231439D01*
X0332912Y0231357D01*
X0332893Y0231276D01*
X0332869Y0231195D01*
X0332842Y0231116D01*
X0332811Y0231038D01*
X0332777Y0230962D01*
X0332738Y0230888D01*
X0332697Y0230815D01*
X0332652Y0230744D01*
X0332604Y0230676D01*
X0332552Y0230610D01*
X0332498Y0230546D01*
X0332440Y0230485D01*
X0332380Y0230427D01*
X0332317Y0230372D01*
X0332252Y0230320D01*
X0332184Y0230271D01*
X0332114Y0230225D01*
X0332042Y0230183D01*
X0331968Y0230144D01*
X0331892Y0230108D01*
X0331814Y0230076D01*
X0331736Y0230048D01*
X0331655Y0230024D01*
X0331574Y0230003D01*
X0331492Y0229987D01*
X0331410Y0229974D01*
X0331326Y0229965D01*
X0331243Y0229960D01*
X0331159Y0229959D01*
X0331075Y0229962D01*
X0330992Y0229969D01*
X0330909Y0229980D01*
X0330827Y0229995D01*
X0330745Y0230013D01*
X0330664Y0230036D01*
X0330585Y0230062D01*
X0330507Y0230092D01*
X0330430Y0230126D01*
X0330355Y0230163D01*
X0330282Y0230203D01*
X0330211Y0230248D01*
X0330142Y0230295D01*
X0330075Y0230346D01*
X0330011Y0230399D01*
X0329949Y0230456D01*
X0329891Y0230516D01*
X0329835Y0230578D01*
X0329782Y0230643D01*
X0329732Y0230710D01*
X0329685Y0230779D01*
X0329642Y0230851D01*
X0329602Y0230925D01*
X0329566Y0231000D01*
X0329533Y0231077D01*
X0329504Y0231156D01*
X0329479Y0231235D01*
X0329457Y0231316D01*
X0329440Y0231398D01*
X0329426Y0231481D01*
X0329416Y0231564D01*
X0329410Y0231647D01*
X0329408Y0231731D01*
X0336416Y0348227D02*
X0336418Y0348380D01*
X0336424Y0348534D01*
X0336434Y0348687D01*
X0336448Y0348839D01*
X0336466Y0348992D01*
X0336488Y0349143D01*
X0336513Y0349294D01*
X0336543Y0349445D01*
X0336577Y0349595D01*
X0336614Y0349743D01*
X0336655Y0349891D01*
X0336700Y0350037D01*
X0336749Y0350183D01*
X0336802Y0350327D01*
X0336858Y0350469D01*
X0336918Y0350610D01*
X0336982Y0350750D01*
X0337049Y0350888D01*
X0337120Y0351024D01*
X0337195Y0351158D01*
X0337272Y0351290D01*
X0337354Y0351420D01*
X0337438Y0351548D01*
X0337526Y0351674D01*
X0337617Y0351797D01*
X0337711Y0351918D01*
X0337809Y0352036D01*
X0337909Y0352152D01*
X0338013Y0352265D01*
X0338119Y0352376D01*
X0338228Y0352484D01*
X0338340Y0352589D01*
X0338454Y0352690D01*
X0338572Y0352789D01*
X0338691Y0352885D01*
X0338813Y0352978D01*
X0338938Y0353067D01*
X0339065Y0353154D01*
X0339194Y0353236D01*
X0339325Y0353316D01*
X0339458Y0353392D01*
X0339593Y0353465D01*
X0339730Y0353534D01*
X0339869Y0353599D01*
X0340009Y0353661D01*
X0340151Y0353719D01*
X0340294Y0353774D01*
X0340439Y0353825D01*
X0340585Y0353872D01*
X0340732Y0353915D01*
X0340880Y0353954D01*
X0341029Y0353990D01*
X0341179Y0354021D01*
X0341330Y0354049D01*
X0341481Y0354073D01*
X0341634Y0354093D01*
X0341786Y0354109D01*
X0341939Y0354121D01*
X0342092Y0354129D01*
X0342245Y0354133D01*
X0342399Y0354133D01*
X0342552Y0354129D01*
X0342705Y0354121D01*
X0342858Y0354109D01*
X0343010Y0354093D01*
X0343163Y0354073D01*
X0343314Y0354049D01*
X0343465Y0354021D01*
X0343615Y0353990D01*
X0343764Y0353954D01*
X0343912Y0353915D01*
X0344059Y0353872D01*
X0344205Y0353825D01*
X0344350Y0353774D01*
X0344493Y0353719D01*
X0344635Y0353661D01*
X0344775Y0353599D01*
X0344914Y0353534D01*
X0345051Y0353465D01*
X0345186Y0353392D01*
X0345319Y0353316D01*
X0345450Y0353236D01*
X0345579Y0353154D01*
X0345706Y0353067D01*
X0345831Y0352978D01*
X0345953Y0352885D01*
X0346072Y0352789D01*
X0346190Y0352690D01*
X0346304Y0352589D01*
X0346416Y0352484D01*
X0346525Y0352376D01*
X0346631Y0352265D01*
X0346735Y0352152D01*
X0346835Y0352036D01*
X0346933Y0351918D01*
X0347027Y0351797D01*
X0347118Y0351674D01*
X0347206Y0351548D01*
X0347290Y0351420D01*
X0347372Y0351290D01*
X0347449Y0351158D01*
X0347524Y0351024D01*
X0347595Y0350888D01*
X0347662Y0350750D01*
X0347726Y0350610D01*
X0347786Y0350469D01*
X0347842Y0350327D01*
X0347895Y0350183D01*
X0347944Y0350037D01*
X0347989Y0349891D01*
X0348030Y0349743D01*
X0348067Y0349595D01*
X0348101Y0349445D01*
X0348131Y0349294D01*
X0348156Y0349143D01*
X0348178Y0348992D01*
X0348196Y0348839D01*
X0348210Y0348687D01*
X0348220Y0348534D01*
X0348226Y0348380D01*
X0348228Y0348227D01*
X0348226Y0348074D01*
X0348220Y0347920D01*
X0348210Y0347767D01*
X0348196Y0347615D01*
X0348178Y0347462D01*
X0348156Y0347311D01*
X0348131Y0347160D01*
X0348101Y0347009D01*
X0348067Y0346859D01*
X0348030Y0346711D01*
X0347989Y0346563D01*
X0347944Y0346417D01*
X0347895Y0346271D01*
X0347842Y0346127D01*
X0347786Y0345985D01*
X0347726Y0345844D01*
X0347662Y0345704D01*
X0347595Y0345566D01*
X0347524Y0345430D01*
X0347449Y0345296D01*
X0347372Y0345164D01*
X0347290Y0345034D01*
X0347206Y0344906D01*
X0347118Y0344780D01*
X0347027Y0344657D01*
X0346933Y0344536D01*
X0346835Y0344418D01*
X0346735Y0344302D01*
X0346631Y0344189D01*
X0346525Y0344078D01*
X0346416Y0343970D01*
X0346304Y0343865D01*
X0346190Y0343764D01*
X0346072Y0343665D01*
X0345953Y0343569D01*
X0345831Y0343476D01*
X0345706Y0343387D01*
X0345579Y0343300D01*
X0345450Y0343218D01*
X0345319Y0343138D01*
X0345186Y0343062D01*
X0345051Y0342989D01*
X0344914Y0342920D01*
X0344775Y0342855D01*
X0344635Y0342793D01*
X0344493Y0342735D01*
X0344350Y0342680D01*
X0344205Y0342629D01*
X0344059Y0342582D01*
X0343912Y0342539D01*
X0343764Y0342500D01*
X0343615Y0342464D01*
X0343465Y0342433D01*
X0343314Y0342405D01*
X0343163Y0342381D01*
X0343010Y0342361D01*
X0342858Y0342345D01*
X0342705Y0342333D01*
X0342552Y0342325D01*
X0342399Y0342321D01*
X0342245Y0342321D01*
X0342092Y0342325D01*
X0341939Y0342333D01*
X0341786Y0342345D01*
X0341634Y0342361D01*
X0341481Y0342381D01*
X0341330Y0342405D01*
X0341179Y0342433D01*
X0341029Y0342464D01*
X0340880Y0342500D01*
X0340732Y0342539D01*
X0340585Y0342582D01*
X0340439Y0342629D01*
X0340294Y0342680D01*
X0340151Y0342735D01*
X0340009Y0342793D01*
X0339869Y0342855D01*
X0339730Y0342920D01*
X0339593Y0342989D01*
X0339458Y0343062D01*
X0339325Y0343138D01*
X0339194Y0343218D01*
X0339065Y0343300D01*
X0338938Y0343387D01*
X0338813Y0343476D01*
X0338691Y0343569D01*
X0338572Y0343665D01*
X0338454Y0343764D01*
X0338340Y0343865D01*
X0338228Y0343970D01*
X0338119Y0344078D01*
X0338013Y0344189D01*
X0337909Y0344302D01*
X0337809Y0344418D01*
X0337711Y0344536D01*
X0337617Y0344657D01*
X0337526Y0344780D01*
X0337438Y0344906D01*
X0337354Y0345034D01*
X0337272Y0345164D01*
X0337195Y0345296D01*
X0337120Y0345430D01*
X0337049Y0345566D01*
X0336982Y0345704D01*
X0336918Y0345844D01*
X0336858Y0345985D01*
X0336802Y0346127D01*
X0336749Y0346271D01*
X0336700Y0346417D01*
X0336655Y0346563D01*
X0336614Y0346711D01*
X0336577Y0346859D01*
X0336543Y0347009D01*
X0336513Y0347160D01*
X0336488Y0347311D01*
X0336466Y0347462D01*
X0336448Y0347615D01*
X0336434Y0347767D01*
X0336424Y0347920D01*
X0336418Y0348074D01*
X0336416Y0348227D01*
X0194683Y0373818D02*
X0194685Y0373971D01*
X0194691Y0374125D01*
X0194701Y0374278D01*
X0194715Y0374430D01*
X0194733Y0374583D01*
X0194755Y0374734D01*
X0194780Y0374885D01*
X0194810Y0375036D01*
X0194844Y0375186D01*
X0194881Y0375334D01*
X0194922Y0375482D01*
X0194967Y0375628D01*
X0195016Y0375774D01*
X0195069Y0375918D01*
X0195125Y0376060D01*
X0195185Y0376201D01*
X0195249Y0376341D01*
X0195316Y0376479D01*
X0195387Y0376615D01*
X0195462Y0376749D01*
X0195539Y0376881D01*
X0195621Y0377011D01*
X0195705Y0377139D01*
X0195793Y0377265D01*
X0195884Y0377388D01*
X0195978Y0377509D01*
X0196076Y0377627D01*
X0196176Y0377743D01*
X0196280Y0377856D01*
X0196386Y0377967D01*
X0196495Y0378075D01*
X0196607Y0378180D01*
X0196721Y0378281D01*
X0196839Y0378380D01*
X0196958Y0378476D01*
X0197080Y0378569D01*
X0197205Y0378658D01*
X0197332Y0378745D01*
X0197461Y0378827D01*
X0197592Y0378907D01*
X0197725Y0378983D01*
X0197860Y0379056D01*
X0197997Y0379125D01*
X0198136Y0379190D01*
X0198276Y0379252D01*
X0198418Y0379310D01*
X0198561Y0379365D01*
X0198706Y0379416D01*
X0198852Y0379463D01*
X0198999Y0379506D01*
X0199147Y0379545D01*
X0199296Y0379581D01*
X0199446Y0379612D01*
X0199597Y0379640D01*
X0199748Y0379664D01*
X0199901Y0379684D01*
X0200053Y0379700D01*
X0200206Y0379712D01*
X0200359Y0379720D01*
X0200512Y0379724D01*
X0200666Y0379724D01*
X0200819Y0379720D01*
X0200972Y0379712D01*
X0201125Y0379700D01*
X0201277Y0379684D01*
X0201430Y0379664D01*
X0201581Y0379640D01*
X0201732Y0379612D01*
X0201882Y0379581D01*
X0202031Y0379545D01*
X0202179Y0379506D01*
X0202326Y0379463D01*
X0202472Y0379416D01*
X0202617Y0379365D01*
X0202760Y0379310D01*
X0202902Y0379252D01*
X0203042Y0379190D01*
X0203181Y0379125D01*
X0203318Y0379056D01*
X0203453Y0378983D01*
X0203586Y0378907D01*
X0203717Y0378827D01*
X0203846Y0378745D01*
X0203973Y0378658D01*
X0204098Y0378569D01*
X0204220Y0378476D01*
X0204339Y0378380D01*
X0204457Y0378281D01*
X0204571Y0378180D01*
X0204683Y0378075D01*
X0204792Y0377967D01*
X0204898Y0377856D01*
X0205002Y0377743D01*
X0205102Y0377627D01*
X0205200Y0377509D01*
X0205294Y0377388D01*
X0205385Y0377265D01*
X0205473Y0377139D01*
X0205557Y0377011D01*
X0205639Y0376881D01*
X0205716Y0376749D01*
X0205791Y0376615D01*
X0205862Y0376479D01*
X0205929Y0376341D01*
X0205993Y0376201D01*
X0206053Y0376060D01*
X0206109Y0375918D01*
X0206162Y0375774D01*
X0206211Y0375628D01*
X0206256Y0375482D01*
X0206297Y0375334D01*
X0206334Y0375186D01*
X0206368Y0375036D01*
X0206398Y0374885D01*
X0206423Y0374734D01*
X0206445Y0374583D01*
X0206463Y0374430D01*
X0206477Y0374278D01*
X0206487Y0374125D01*
X0206493Y0373971D01*
X0206495Y0373818D01*
X0206493Y0373665D01*
X0206487Y0373511D01*
X0206477Y0373358D01*
X0206463Y0373206D01*
X0206445Y0373053D01*
X0206423Y0372902D01*
X0206398Y0372751D01*
X0206368Y0372600D01*
X0206334Y0372450D01*
X0206297Y0372302D01*
X0206256Y0372154D01*
X0206211Y0372008D01*
X0206162Y0371862D01*
X0206109Y0371718D01*
X0206053Y0371576D01*
X0205993Y0371435D01*
X0205929Y0371295D01*
X0205862Y0371157D01*
X0205791Y0371021D01*
X0205716Y0370887D01*
X0205639Y0370755D01*
X0205557Y0370625D01*
X0205473Y0370497D01*
X0205385Y0370371D01*
X0205294Y0370248D01*
X0205200Y0370127D01*
X0205102Y0370009D01*
X0205002Y0369893D01*
X0204898Y0369780D01*
X0204792Y0369669D01*
X0204683Y0369561D01*
X0204571Y0369456D01*
X0204457Y0369355D01*
X0204339Y0369256D01*
X0204220Y0369160D01*
X0204098Y0369067D01*
X0203973Y0368978D01*
X0203846Y0368891D01*
X0203717Y0368809D01*
X0203586Y0368729D01*
X0203453Y0368653D01*
X0203318Y0368580D01*
X0203181Y0368511D01*
X0203042Y0368446D01*
X0202902Y0368384D01*
X0202760Y0368326D01*
X0202617Y0368271D01*
X0202472Y0368220D01*
X0202326Y0368173D01*
X0202179Y0368130D01*
X0202031Y0368091D01*
X0201882Y0368055D01*
X0201732Y0368024D01*
X0201581Y0367996D01*
X0201430Y0367972D01*
X0201277Y0367952D01*
X0201125Y0367936D01*
X0200972Y0367924D01*
X0200819Y0367916D01*
X0200666Y0367912D01*
X0200512Y0367912D01*
X0200359Y0367916D01*
X0200206Y0367924D01*
X0200053Y0367936D01*
X0199901Y0367952D01*
X0199748Y0367972D01*
X0199597Y0367996D01*
X0199446Y0368024D01*
X0199296Y0368055D01*
X0199147Y0368091D01*
X0198999Y0368130D01*
X0198852Y0368173D01*
X0198706Y0368220D01*
X0198561Y0368271D01*
X0198418Y0368326D01*
X0198276Y0368384D01*
X0198136Y0368446D01*
X0197997Y0368511D01*
X0197860Y0368580D01*
X0197725Y0368653D01*
X0197592Y0368729D01*
X0197461Y0368809D01*
X0197332Y0368891D01*
X0197205Y0368978D01*
X0197080Y0369067D01*
X0196958Y0369160D01*
X0196839Y0369256D01*
X0196721Y0369355D01*
X0196607Y0369456D01*
X0196495Y0369561D01*
X0196386Y0369669D01*
X0196280Y0369780D01*
X0196176Y0369893D01*
X0196076Y0370009D01*
X0195978Y0370127D01*
X0195884Y0370248D01*
X0195793Y0370371D01*
X0195705Y0370497D01*
X0195621Y0370625D01*
X0195539Y0370755D01*
X0195462Y0370887D01*
X0195387Y0371021D01*
X0195316Y0371157D01*
X0195249Y0371295D01*
X0195185Y0371435D01*
X0195125Y0371576D01*
X0195069Y0371718D01*
X0195016Y0371862D01*
X0194967Y0372008D01*
X0194922Y0372154D01*
X0194881Y0372302D01*
X0194844Y0372450D01*
X0194810Y0372600D01*
X0194780Y0372751D01*
X0194755Y0372902D01*
X0194733Y0373053D01*
X0194715Y0373206D01*
X0194701Y0373358D01*
X0194691Y0373511D01*
X0194685Y0373665D01*
X0194683Y0373818D01*
X0157282Y0348227D02*
X0157284Y0348380D01*
X0157290Y0348534D01*
X0157300Y0348687D01*
X0157314Y0348839D01*
X0157332Y0348992D01*
X0157354Y0349143D01*
X0157379Y0349294D01*
X0157409Y0349445D01*
X0157443Y0349595D01*
X0157480Y0349743D01*
X0157521Y0349891D01*
X0157566Y0350037D01*
X0157615Y0350183D01*
X0157668Y0350327D01*
X0157724Y0350469D01*
X0157784Y0350610D01*
X0157848Y0350750D01*
X0157915Y0350888D01*
X0157986Y0351024D01*
X0158061Y0351158D01*
X0158138Y0351290D01*
X0158220Y0351420D01*
X0158304Y0351548D01*
X0158392Y0351674D01*
X0158483Y0351797D01*
X0158577Y0351918D01*
X0158675Y0352036D01*
X0158775Y0352152D01*
X0158879Y0352265D01*
X0158985Y0352376D01*
X0159094Y0352484D01*
X0159206Y0352589D01*
X0159320Y0352690D01*
X0159438Y0352789D01*
X0159557Y0352885D01*
X0159679Y0352978D01*
X0159804Y0353067D01*
X0159931Y0353154D01*
X0160060Y0353236D01*
X0160191Y0353316D01*
X0160324Y0353392D01*
X0160459Y0353465D01*
X0160596Y0353534D01*
X0160735Y0353599D01*
X0160875Y0353661D01*
X0161017Y0353719D01*
X0161160Y0353774D01*
X0161305Y0353825D01*
X0161451Y0353872D01*
X0161598Y0353915D01*
X0161746Y0353954D01*
X0161895Y0353990D01*
X0162045Y0354021D01*
X0162196Y0354049D01*
X0162347Y0354073D01*
X0162500Y0354093D01*
X0162652Y0354109D01*
X0162805Y0354121D01*
X0162958Y0354129D01*
X0163111Y0354133D01*
X0163265Y0354133D01*
X0163418Y0354129D01*
X0163571Y0354121D01*
X0163724Y0354109D01*
X0163876Y0354093D01*
X0164029Y0354073D01*
X0164180Y0354049D01*
X0164331Y0354021D01*
X0164481Y0353990D01*
X0164630Y0353954D01*
X0164778Y0353915D01*
X0164925Y0353872D01*
X0165071Y0353825D01*
X0165216Y0353774D01*
X0165359Y0353719D01*
X0165501Y0353661D01*
X0165641Y0353599D01*
X0165780Y0353534D01*
X0165917Y0353465D01*
X0166052Y0353392D01*
X0166185Y0353316D01*
X0166316Y0353236D01*
X0166445Y0353154D01*
X0166572Y0353067D01*
X0166697Y0352978D01*
X0166819Y0352885D01*
X0166938Y0352789D01*
X0167056Y0352690D01*
X0167170Y0352589D01*
X0167282Y0352484D01*
X0167391Y0352376D01*
X0167497Y0352265D01*
X0167601Y0352152D01*
X0167701Y0352036D01*
X0167799Y0351918D01*
X0167893Y0351797D01*
X0167984Y0351674D01*
X0168072Y0351548D01*
X0168156Y0351420D01*
X0168238Y0351290D01*
X0168315Y0351158D01*
X0168390Y0351024D01*
X0168461Y0350888D01*
X0168528Y0350750D01*
X0168592Y0350610D01*
X0168652Y0350469D01*
X0168708Y0350327D01*
X0168761Y0350183D01*
X0168810Y0350037D01*
X0168855Y0349891D01*
X0168896Y0349743D01*
X0168933Y0349595D01*
X0168967Y0349445D01*
X0168997Y0349294D01*
X0169022Y0349143D01*
X0169044Y0348992D01*
X0169062Y0348839D01*
X0169076Y0348687D01*
X0169086Y0348534D01*
X0169092Y0348380D01*
X0169094Y0348227D01*
X0169092Y0348074D01*
X0169086Y0347920D01*
X0169076Y0347767D01*
X0169062Y0347615D01*
X0169044Y0347462D01*
X0169022Y0347311D01*
X0168997Y0347160D01*
X0168967Y0347009D01*
X0168933Y0346859D01*
X0168896Y0346711D01*
X0168855Y0346563D01*
X0168810Y0346417D01*
X0168761Y0346271D01*
X0168708Y0346127D01*
X0168652Y0345985D01*
X0168592Y0345844D01*
X0168528Y0345704D01*
X0168461Y0345566D01*
X0168390Y0345430D01*
X0168315Y0345296D01*
X0168238Y0345164D01*
X0168156Y0345034D01*
X0168072Y0344906D01*
X0167984Y0344780D01*
X0167893Y0344657D01*
X0167799Y0344536D01*
X0167701Y0344418D01*
X0167601Y0344302D01*
X0167497Y0344189D01*
X0167391Y0344078D01*
X0167282Y0343970D01*
X0167170Y0343865D01*
X0167056Y0343764D01*
X0166938Y0343665D01*
X0166819Y0343569D01*
X0166697Y0343476D01*
X0166572Y0343387D01*
X0166445Y0343300D01*
X0166316Y0343218D01*
X0166185Y0343138D01*
X0166052Y0343062D01*
X0165917Y0342989D01*
X0165780Y0342920D01*
X0165641Y0342855D01*
X0165501Y0342793D01*
X0165359Y0342735D01*
X0165216Y0342680D01*
X0165071Y0342629D01*
X0164925Y0342582D01*
X0164778Y0342539D01*
X0164630Y0342500D01*
X0164481Y0342464D01*
X0164331Y0342433D01*
X0164180Y0342405D01*
X0164029Y0342381D01*
X0163876Y0342361D01*
X0163724Y0342345D01*
X0163571Y0342333D01*
X0163418Y0342325D01*
X0163265Y0342321D01*
X0163111Y0342321D01*
X0162958Y0342325D01*
X0162805Y0342333D01*
X0162652Y0342345D01*
X0162500Y0342361D01*
X0162347Y0342381D01*
X0162196Y0342405D01*
X0162045Y0342433D01*
X0161895Y0342464D01*
X0161746Y0342500D01*
X0161598Y0342539D01*
X0161451Y0342582D01*
X0161305Y0342629D01*
X0161160Y0342680D01*
X0161017Y0342735D01*
X0160875Y0342793D01*
X0160735Y0342855D01*
X0160596Y0342920D01*
X0160459Y0342989D01*
X0160324Y0343062D01*
X0160191Y0343138D01*
X0160060Y0343218D01*
X0159931Y0343300D01*
X0159804Y0343387D01*
X0159679Y0343476D01*
X0159557Y0343569D01*
X0159438Y0343665D01*
X0159320Y0343764D01*
X0159206Y0343865D01*
X0159094Y0343970D01*
X0158985Y0344078D01*
X0158879Y0344189D01*
X0158775Y0344302D01*
X0158675Y0344418D01*
X0158577Y0344536D01*
X0158483Y0344657D01*
X0158392Y0344780D01*
X0158304Y0344906D01*
X0158220Y0345034D01*
X0158138Y0345164D01*
X0158061Y0345296D01*
X0157986Y0345430D01*
X0157915Y0345566D01*
X0157848Y0345704D01*
X0157784Y0345844D01*
X0157724Y0345985D01*
X0157668Y0346127D01*
X0157615Y0346271D01*
X0157566Y0346417D01*
X0157521Y0346563D01*
X0157480Y0346711D01*
X0157443Y0346859D01*
X0157409Y0347009D01*
X0157379Y0347160D01*
X0157354Y0347311D01*
X0157332Y0347462D01*
X0157314Y0347615D01*
X0157300Y0347767D01*
X0157290Y0347920D01*
X0157284Y0348074D01*
X0157282Y0348227D01*
X0015550Y0373818D02*
X0015552Y0373971D01*
X0015558Y0374125D01*
X0015568Y0374278D01*
X0015582Y0374430D01*
X0015600Y0374583D01*
X0015622Y0374734D01*
X0015647Y0374885D01*
X0015677Y0375036D01*
X0015711Y0375186D01*
X0015748Y0375334D01*
X0015789Y0375482D01*
X0015834Y0375628D01*
X0015883Y0375774D01*
X0015936Y0375918D01*
X0015992Y0376060D01*
X0016052Y0376201D01*
X0016116Y0376341D01*
X0016183Y0376479D01*
X0016254Y0376615D01*
X0016329Y0376749D01*
X0016406Y0376881D01*
X0016488Y0377011D01*
X0016572Y0377139D01*
X0016660Y0377265D01*
X0016751Y0377388D01*
X0016845Y0377509D01*
X0016943Y0377627D01*
X0017043Y0377743D01*
X0017147Y0377856D01*
X0017253Y0377967D01*
X0017362Y0378075D01*
X0017474Y0378180D01*
X0017588Y0378281D01*
X0017706Y0378380D01*
X0017825Y0378476D01*
X0017947Y0378569D01*
X0018072Y0378658D01*
X0018199Y0378745D01*
X0018328Y0378827D01*
X0018459Y0378907D01*
X0018592Y0378983D01*
X0018727Y0379056D01*
X0018864Y0379125D01*
X0019003Y0379190D01*
X0019143Y0379252D01*
X0019285Y0379310D01*
X0019428Y0379365D01*
X0019573Y0379416D01*
X0019719Y0379463D01*
X0019866Y0379506D01*
X0020014Y0379545D01*
X0020163Y0379581D01*
X0020313Y0379612D01*
X0020464Y0379640D01*
X0020615Y0379664D01*
X0020768Y0379684D01*
X0020920Y0379700D01*
X0021073Y0379712D01*
X0021226Y0379720D01*
X0021379Y0379724D01*
X0021533Y0379724D01*
X0021686Y0379720D01*
X0021839Y0379712D01*
X0021992Y0379700D01*
X0022144Y0379684D01*
X0022297Y0379664D01*
X0022448Y0379640D01*
X0022599Y0379612D01*
X0022749Y0379581D01*
X0022898Y0379545D01*
X0023046Y0379506D01*
X0023193Y0379463D01*
X0023339Y0379416D01*
X0023484Y0379365D01*
X0023627Y0379310D01*
X0023769Y0379252D01*
X0023909Y0379190D01*
X0024048Y0379125D01*
X0024185Y0379056D01*
X0024320Y0378983D01*
X0024453Y0378907D01*
X0024584Y0378827D01*
X0024713Y0378745D01*
X0024840Y0378658D01*
X0024965Y0378569D01*
X0025087Y0378476D01*
X0025206Y0378380D01*
X0025324Y0378281D01*
X0025438Y0378180D01*
X0025550Y0378075D01*
X0025659Y0377967D01*
X0025765Y0377856D01*
X0025869Y0377743D01*
X0025969Y0377627D01*
X0026067Y0377509D01*
X0026161Y0377388D01*
X0026252Y0377265D01*
X0026340Y0377139D01*
X0026424Y0377011D01*
X0026506Y0376881D01*
X0026583Y0376749D01*
X0026658Y0376615D01*
X0026729Y0376479D01*
X0026796Y0376341D01*
X0026860Y0376201D01*
X0026920Y0376060D01*
X0026976Y0375918D01*
X0027029Y0375774D01*
X0027078Y0375628D01*
X0027123Y0375482D01*
X0027164Y0375334D01*
X0027201Y0375186D01*
X0027235Y0375036D01*
X0027265Y0374885D01*
X0027290Y0374734D01*
X0027312Y0374583D01*
X0027330Y0374430D01*
X0027344Y0374278D01*
X0027354Y0374125D01*
X0027360Y0373971D01*
X0027362Y0373818D01*
X0027360Y0373665D01*
X0027354Y0373511D01*
X0027344Y0373358D01*
X0027330Y0373206D01*
X0027312Y0373053D01*
X0027290Y0372902D01*
X0027265Y0372751D01*
X0027235Y0372600D01*
X0027201Y0372450D01*
X0027164Y0372302D01*
X0027123Y0372154D01*
X0027078Y0372008D01*
X0027029Y0371862D01*
X0026976Y0371718D01*
X0026920Y0371576D01*
X0026860Y0371435D01*
X0026796Y0371295D01*
X0026729Y0371157D01*
X0026658Y0371021D01*
X0026583Y0370887D01*
X0026506Y0370755D01*
X0026424Y0370625D01*
X0026340Y0370497D01*
X0026252Y0370371D01*
X0026161Y0370248D01*
X0026067Y0370127D01*
X0025969Y0370009D01*
X0025869Y0369893D01*
X0025765Y0369780D01*
X0025659Y0369669D01*
X0025550Y0369561D01*
X0025438Y0369456D01*
X0025324Y0369355D01*
X0025206Y0369256D01*
X0025087Y0369160D01*
X0024965Y0369067D01*
X0024840Y0368978D01*
X0024713Y0368891D01*
X0024584Y0368809D01*
X0024453Y0368729D01*
X0024320Y0368653D01*
X0024185Y0368580D01*
X0024048Y0368511D01*
X0023909Y0368446D01*
X0023769Y0368384D01*
X0023627Y0368326D01*
X0023484Y0368271D01*
X0023339Y0368220D01*
X0023193Y0368173D01*
X0023046Y0368130D01*
X0022898Y0368091D01*
X0022749Y0368055D01*
X0022599Y0368024D01*
X0022448Y0367996D01*
X0022297Y0367972D01*
X0022144Y0367952D01*
X0021992Y0367936D01*
X0021839Y0367924D01*
X0021686Y0367916D01*
X0021533Y0367912D01*
X0021379Y0367912D01*
X0021226Y0367916D01*
X0021073Y0367924D01*
X0020920Y0367936D01*
X0020768Y0367952D01*
X0020615Y0367972D01*
X0020464Y0367996D01*
X0020313Y0368024D01*
X0020163Y0368055D01*
X0020014Y0368091D01*
X0019866Y0368130D01*
X0019719Y0368173D01*
X0019573Y0368220D01*
X0019428Y0368271D01*
X0019285Y0368326D01*
X0019143Y0368384D01*
X0019003Y0368446D01*
X0018864Y0368511D01*
X0018727Y0368580D01*
X0018592Y0368653D01*
X0018459Y0368729D01*
X0018328Y0368809D01*
X0018199Y0368891D01*
X0018072Y0368978D01*
X0017947Y0369067D01*
X0017825Y0369160D01*
X0017706Y0369256D01*
X0017588Y0369355D01*
X0017474Y0369456D01*
X0017362Y0369561D01*
X0017253Y0369669D01*
X0017147Y0369780D01*
X0017043Y0369893D01*
X0016943Y0370009D01*
X0016845Y0370127D01*
X0016751Y0370248D01*
X0016660Y0370371D01*
X0016572Y0370497D01*
X0016488Y0370625D01*
X0016406Y0370755D01*
X0016329Y0370887D01*
X0016254Y0371021D01*
X0016183Y0371157D01*
X0016116Y0371295D01*
X0016052Y0371435D01*
X0015992Y0371576D01*
X0015936Y0371718D01*
X0015883Y0371862D01*
X0015834Y0372008D01*
X0015789Y0372154D01*
X0015748Y0372302D01*
X0015711Y0372450D01*
X0015677Y0372600D01*
X0015647Y0372751D01*
X0015622Y0372902D01*
X0015600Y0373053D01*
X0015582Y0373206D01*
X0015568Y0373358D01*
X0015558Y0373511D01*
X0015552Y0373665D01*
X0015550Y0373818D01*
D12*
X0152046Y0231731D03*
X0152046Y0214408D03*
X0163542Y0152046D03*
X0180865Y0152046D03*
X0331180Y0214408D03*
X0331180Y0231731D03*
D13*
X0342322Y0348227D03*
X0200589Y0373818D03*
X0163188Y0348227D03*
X0200589Y0204526D03*
X0047046Y0163188D03*
X0021456Y0204526D03*
X0021456Y0373818D03*
X0021456Y0021456D03*
X0190747Y0021456D03*
D14*
X0173208Y0057813D03*
X0163608Y0067413D03*
X0150408Y0066213D03*
X0146808Y0066213D03*
X0149408Y0056889D03*
X0136608Y0071613D03*
X0131808Y0075813D03*
X0123408Y0086013D03*
X0117408Y0089013D03*
X0094290Y0070668D03*
X0121608Y0048213D03*
X0127608Y0047013D03*
X0133608Y0036213D03*
X0147408Y0096213D03*
X0190008Y0102213D03*
X0102213Y0205265D03*
X0067413Y0231665D03*
X0057813Y0222065D03*
X0056889Y0245865D03*
X0066213Y0244865D03*
X0066213Y0248465D03*
X0071613Y0258665D03*
X0075813Y0263465D03*
X0086013Y0271865D03*
X0089013Y0277865D03*
X0070668Y0300983D03*
X0048213Y0273665D03*
X0047013Y0267665D03*
X0036213Y0261665D03*
X0096213Y0247865D03*
X0215347Y0261665D03*
X0226147Y0267665D03*
X0227347Y0273665D03*
X0250747Y0258665D03*
X0254947Y0263465D03*
X0265147Y0271865D03*
X0268147Y0277865D03*
X0249802Y0300983D03*
X0245347Y0248465D03*
X0245347Y0244865D03*
X0236022Y0245865D03*
X0246547Y0231665D03*
X0236947Y0222065D03*
X0275347Y0247865D03*
X0281347Y0205265D03*
D15*
X0283267Y0182873D03*
X0289172Y0182873D03*
X0295078Y0182873D03*
X0300983Y0182873D03*
X0306889Y0182873D03*
X0312794Y0182873D03*
X0318700Y0182873D03*
X0324605Y0182873D03*
X0330511Y0182873D03*
X0336416Y0182873D03*
X0342322Y0182873D03*
X0348227Y0182873D03*
X0354133Y0182873D03*
X0360038Y0182873D03*
X0277361Y0182873D03*
X0271456Y0182873D03*
X0265550Y0182873D03*
X0259645Y0182873D03*
X0253739Y0182873D03*
X0247833Y0182873D03*
X0241928Y0182873D03*
X0236022Y0182873D03*
X0230117Y0182873D03*
X0224211Y0182873D03*
X0218306Y0182873D03*
X0212400Y0182873D03*
X0206495Y0182873D03*
X0200589Y0182873D03*
X0194684Y0182873D03*
X0188778Y0182873D03*
X0182873Y0182873D03*
X0182873Y0188778D03*
X0182873Y0194684D03*
X0182873Y0200589D03*
X0182873Y0206495D03*
X0182873Y0212400D03*
X0182873Y0218306D03*
X0182873Y0224211D03*
X0182873Y0230117D03*
X0182873Y0236022D03*
X0182873Y0241928D03*
X0182873Y0247833D03*
X0182873Y0253739D03*
X0182873Y0259645D03*
X0182873Y0265550D03*
X0182873Y0271456D03*
X0182873Y0277361D03*
X0182873Y0283267D03*
X0182873Y0289172D03*
X0182873Y0295078D03*
X0182873Y0300983D03*
X0182873Y0306889D03*
X0182873Y0312794D03*
X0182873Y0318700D03*
X0182873Y0324605D03*
X0182873Y0330511D03*
X0182873Y0336416D03*
X0182873Y0342322D03*
X0182873Y0348227D03*
X0182873Y0354133D03*
X0182873Y0360038D03*
X0182873Y0365944D03*
X0182873Y0371849D03*
X0182873Y0377755D03*
X0182873Y0383660D03*
X0182873Y0389566D03*
X0176967Y0182873D03*
X0171062Y0182873D03*
X0165156Y0182873D03*
X0159251Y0182873D03*
X0153345Y0182873D03*
X0147440Y0182873D03*
X0141534Y0182873D03*
X0135629Y0182873D03*
X0129723Y0182873D03*
X0123818Y0182873D03*
X0117912Y0182873D03*
X0112007Y0182873D03*
X0106101Y0182873D03*
X0100196Y0182873D03*
X0094290Y0182873D03*
X0088385Y0182873D03*
X0082479Y0182873D03*
X0076574Y0182873D03*
X0070668Y0182873D03*
X0064763Y0182873D03*
X0058857Y0182873D03*
X0052952Y0182873D03*
X0047046Y0182873D03*
X0041141Y0182873D03*
X0035235Y0182873D03*
X0029330Y0182873D03*
X0023424Y0182873D03*
X0017519Y0182873D03*
X0011613Y0182873D03*
X0005707Y0182873D03*
X0212400Y0176967D03*
X0212400Y0171062D03*
X0212400Y0165156D03*
X0212400Y0159251D03*
X0212400Y0153345D03*
X0212400Y0147440D03*
X0212400Y0141534D03*
X0212400Y0135629D03*
X0212400Y0129723D03*
X0212400Y0123818D03*
X0212400Y0117912D03*
X0212400Y0112007D03*
X0212400Y0106101D03*
X0212400Y0100196D03*
X0212400Y0094290D03*
X0212400Y0088385D03*
X0212400Y0082479D03*
X0212400Y0076574D03*
X0212400Y0070668D03*
X0212400Y0064763D03*
X0212400Y0058857D03*
X0212400Y0052952D03*
X0212400Y0047046D03*
X0212400Y0041141D03*
X0212400Y0035235D03*
X0212400Y0029330D03*
X0212400Y0023424D03*
X0212400Y0017519D03*
X0212400Y0011613D03*
X0212400Y0005707D03*
M02*
